<?xml version="1.0" encoding="UTF-8" standalone="no"?><!-- Created with Inkscape (http://www.inkscape.org/) -->

<svg xmlns:dc="http://purl.org/dc/elements/1.1/" xmlns:cc="http://creativecommons.org/ns#"
    xmlns:rdf="http://www.w3.org/1999/02/22-rdf-syntax-ns#" xmlns="http://www.w3.org/2000/svg"
    xmlns:sodipodi="http://sodipodi.sourceforge.net/DTD/sodipodi-0.dtd"
    xmlns:inkscape="http://www.inkscape.org/namespaces/inkscape" width="232.40089"
    height="283.51566" id="svg3674" version="1.1" inkscape:version="0.48.4 r9939"
    sodipodi:docname="Halictus-rubicundus-silhouette.svg">
  <defs id="defs3676" />
  <sodipodi:namedview id="base" pagecolor="#ffffff" bordercolor="#666666" borderopacity="1.0"
      inkscape:pageopacity="0.0" inkscape:pageshadow="2" inkscape:zoom="1.4142136"
      inkscape:cx="217.2654" inkscape:cy="108.14369" inkscape:document-units="px"
      inkscape:current-layer="layer1" showgrid="false" showguides="true" inkscape:guide-bbox="true"
      fit-margin-top="30" fit-margin-left="10" fit-margin-bottom="50" fit-margin-right="10"
      inkscape:window-width="1440" inkscape:window-height="846" inkscape:window-x="0"
      inkscape:window-y="0" inkscape:window-maximized="1" />
  <metadata id="metadata3679">
    <rdf:RDF>
      <cc:Work rdf:about="">
        <dc:format>image/svg+xml</dc:format>
        <dc:type rdf:resource="http://purl.org/dc/dcmitype/StillImage" />
        <dc:title></dc:title>
      </cc:Work>
    </rdf:RDF>
  </metadata>
  <g inkscape:label="Layer 1" inkscape:groupmode="layer" id="layer1"
      transform="translate(-259.52345,-306.70103)">
    <path style="fill:#000000;stroke:none"
        d="m 387.10767,442.89285 c -0.39222,-0.011 -0.77857,0.0314 -1.15902,0.17045 -1.51997,1.86097 -1.34564,4.45928 -2.04534,6.65869 -0.85478,1.663 -0.32672,3.64625 0.60224,5.14743 1.09738,1.58476 3.05134,3.81752 4.98834,4.49973 -0.13847,1.09224 0.51299,2.1727 2.02261,2.30668 1.16234,0.34113 2.54776,1.23298 3.73841,1.18175 1.17143,3.17322 7.3153,4.70336 10.54484,4.94289 6.37704,1.48614 14.11961,2.14931 18.94206,0.43179 0.97618,-0.26059 1.8945,-0.69392 2.71575,-1.23856 0.0148,1.00785 0.20065,1.97796 0.55678,2.73847 3.06336,7.86657 4.68463,16.13653 5.94283,24.52128 0.26238,0.0928 0.57602,0.23774 0.90904,0.39771 -0.0238,0.0312 -0.0445,0.057 -0.0682,0.0909 -0.291,3.62063 0.48846,7.21649 1.61354,10.63573 -0.0148,-0.68408 -0.37965,-2.73063 -0.36361,-3.95431 -0.15715,-2.03203 0.21228,-4.05374 0.17044,-6.07918 0.80459,0.43743 1.71343,0.94466 2.64757,1.45446 -0.12923,0.28755 -0.26063,0.57819 -0.38634,0.86358 -0.41964,2.73918 -0.10562,4.55252 0.73859,7.03368 0.88954,1.44232 0.79522,4.9016 2.84075,5.38604 0.4323,-0.15888 0.86658,-0.31861 1.29537,-0.48861 -0.005,0.2067 0.0345,0.43516 0.13636,0.70451 0.77992,1.18808 1.01151,2.62227 1.72717,3.86341 1.29739,2.20381 2.66953,4.37506 4.28384,6.36326 1.04119,1.13969 1.86344,2.48057 2.77256,3.67023 0.38611,0.0545 0.73658,0.002 1.06812,-0.12499 0.0409,0.0897 0.085,0.18168 0.14772,0.27271 0.69114,1.74974 2.73812,3.34937 3.96567,4.04522 0.41637,0.50979 0.60744,0.41976 0.77268,0.12499 0.75082,1.23819 2.33108,2.36338 3.10209,3.068 0.18719,-0.21214 0.37384,-0.42445 0.56815,-0.63632 0.0171,0.0964 0.0351,0.19943 0.0795,0.29543 1.47845,1.4775 2.04468,3.18133 3.8066,4.32929 0.0544,0.008 0.10508,0.009 0.15908,0.0114 -0.47196,1.23308 -0.21418,2.79657 0.0568,3.92023 l 0.38634,0.71586 c 0.80179,-1.94153 -0.42449,-2.37422 0.70451,-4.72699 0.76812,1.91368 3.00972,0.6414 0.82949,-0.81813 1.67032,-0.61667 2.8629,0.28905 4.61337,0.0682 -1.32202,-1.09147 -3.22873,-1.40519 -4.45428,-1.10221 0.0928,-0.54634 -0.0601,-1.07211 -0.57952,-1.38628 -1.20897,-0.69549 -2.24673,-1.64755 -3.43161,-2.38623 -0.1506,-0.21873 -0.33008,-0.35016 -0.5227,-0.42043 0.17268,-0.11885 0.36028,-0.2309 0.54542,-0.32952 -0.73876,-1.06983 -2.42449,-2.6453 -3.74977,-3.35208 0.35769,-0.37396 0.57281,-0.76321 0.21589,-1.2272 -1.23985,-1.00685 -2.33966,-2.22733 -3.80659,-2.92028 -0.27806,-0.10763 -0.61207,-0.14032 -0.95449,-0.11363 0.19945,-0.32366 0.40407,-0.65195 0.57951,-0.93176 1.20055,-1.65367 -1.22969,-2.80479 -1.99988,-4.03385 -2.28094,-2.4119 -3.63565,-5.49388 -5.4315,-8.24952 -0.32854,-0.0847 -0.66279,-0.1344 -0.99994,-0.17044 1.5816,-0.45409 1.65013,-2.22019 0.76132,-3.64751 -0.30801,-1.86142 -1.25569,-3.4577 -2.20442,-5.04516 0.89213,-0.15964 1.54717,-0.72355 1.80672,-1.86353 -0.50564,-5.5182 -2.37654,-12.24022 -4.26112,-17.40806 -2.4474,-5.53115 -5.53221,-11.11628 -9.72669,-15.71498 0.10261,-0.21742 0.15251,-0.45441 0.13635,-0.69314 -0.0932,-1.35857 -0.83278,-2.58811 -1.73853,-3.56797 -0.51153,-0.5451 -1.07349,-1.05398 -1.68172,-1.48855 -0.43289,-0.25789 -1.05215,-0.29839 -1.40901,0.11363 -0.13145,0.31102 -0.20336,0.65246 -0.21589,0.98858 -0.28739,-0.12088 -0.61052,-0.21666 -0.98858,-0.28407 -7.45684,-1.0953 -19.38349,-5.80796 -26.83932,-3.74978 -0.50334,0.0575 -1.00302,0.16262 -1.47719,0.32952 -0.30142,-2.53974 -3.49177,-0.18359 -4.95425,-1.32946 -0.40219,-0.31512 -0.55754,-0.46044 -0.6136,-0.51134 0.56322,-1.7996 1.00153,-3.65472 1.02266,-5.54512 0.43347,-1.85278 -0.70841,-3.37725 -2.01124,-4.55655 -0.83434,-0.54165 -1.87363,-0.65898 -2.84074,-0.77268 -1.20298,0.0842 -2.4254,-0.44422 -3.60206,-0.47725 z m 7.42001,11.37433 c 0.0681,0.12221 0.26088,0.51342 -0.28407,0.86358 0.0966,-0.28791 0.19293,-0.57303 0.28407,-0.86358 z"
        id="path7049" inkscape:connector-curvature="0" />
    <path style="fill:#000000;stroke:none"
        d="m 376.86964,450.7333 c -0.57004,0.87247 -1.14577,1.75237 -1.71581,2.62484 0.48526,1.63066 3.67805,6.59837 5.09061,7.55637 0.0186,0.006 0.0384,0.006 0.0568,0.0114 -0.10241,0.10834 -0.19797,0.21255 -0.3068,0.32952 0.47141,3.0658 2.93036,5.59983 4.76108,7.89726 0.0282,0.0126 0.0518,0.0225 0.0795,0.0341 0.0561,0.95678 0.45439,1.94047 1.06811,2.49985 2.37552,2.02494 5.05463,4.12735 8.27224,4.37475 2.51197,0.5824 5.20275,0.0679 7.2723,-1.39765 0.23473,2.50475 1.23436,5.0024 0.84086,7.53365 -0.88744,3.30648 -0.52265,6.72468 -0.22726,10.09031 0.56913,2.45068 -0.27761,5.17369 0.90904,7.42001 -1.45488,1.74649 -1.69189,4.52224 -1.51128,6.69279 0.27771,-1.99254 0.9087,-4.43365 1.8408,-6.23827 0.6073,0.73204 1.40123,1.38655 2.29532,1.86353 -0.0977,0.15393 -0.17929,0.31173 -0.23862,0.48861 0.93253,3.94573 3.58671,7.42592 3.51116,11.61295 -0.25402,1.64745 0.6143,2.71628 1.81807,3.1589 -0.0404,0.0912 -0.0748,0.19168 -0.0909,0.29544 -0.47927,1.27331 -0.24128,2.6316 0.17044,3.87477 0.13705,0.54659 0.48247,0.81931 0.88631,0.90904 -0.15389,0.25556 -0.23675,0.55356 -0.22726,0.85222 0.5199,1.47235 -1.04205,3.59527 0.20454,4.68154 -0.0564,0.14732 -0.11022,0.3328 -0.17045,0.56815 -0.21346,1.3523 -0.65217,2.0446 0.0795,3.02255 -0.0949,1.64361 -0.62369,3.01928 -0.23862,4.70426 0.003,0.004 0.008,0.007 0.0114,0.0114 -1.15426,0.48275 -2.02325,1.71111 -2.57939,2.65893 1.76812,-0.77207 1.03733,-1.10814 3.2839,-1.94307 -0.71363,1.75773 1.57674,2.34901 1.06812,-0.0114 1.49645,0.66022 1.57795,1.95821 2.87483,2.93165 -0.16655,-1.47781 -1.06685,-2.79812 -1.97716,-3.42026 0.45173,-0.30167 0.72992,-0.75965 0.57951,-1.32946 -0.32061,-1.11502 -0.43632,-2.27578 -0.68178,-3.40889 0.14936,-0.25349 0.23184,-0.62446 0.24999,-1.11357 0.20503,-0.57868 0.0601,-1.89087 -0.31816,-2.82938 0.42262,-0.57896 0.55141,-1.53201 0.47724,-2.4544 0.011,-1.2699 -0.21311,-2.55664 -0.7045,-3.20436 0.74349,-0.0181 1.44141,-0.44385 0.89767,-1.29538 -0.4315,-1.1215 -0.83564,-2.30514 -1.15902,-3.47706 0.31364,-0.10483 0.61826,-0.24752 0.89767,-0.4318 0.71352,-0.39987 0.23542,-4.28707 0.34089,-6.24963 -0.16933,-3.01303 -0.37552,-6.2592 -2.06806,-8.84038 -0.11068,-0.12889 -0.22937,-0.24264 -0.36361,-0.35225 0.0235,-0.0263 0.045,-0.0524 0.0682,-0.0795 0.76306,-2.43008 -0.0429,-5.15164 -0.46588,-7.62454 -0.99185,-5.56508 -2.32505,-11.05315 -4.04521,-16.44221 -0.65247,-2.31189 -1.43159,-5.73369 -3.8066,-6.6587 -0.43825,-1.66911 -2.68183,-3.0109 -4.18157,-3.8066 -3.43818,-2.23287 -7.81564,-2.43489 -11.59022,-1.02266 0.0865,-0.5642 0.12882,-1.10497 0.14772,-1.534 0.10232,-2.2422 -1.09215,-5.00246 -2.99983,-6.19282 -0.21599,0.0529 -0.39707,0.11648 -0.59087,0.17045 0.23504,-0.48287 0.0846,-1.1796 0.18181,-1.70445 0.20501,-1.31466 0.36393,-2.74881 1.24992,-3.80659 0.60298,-0.61095 -0.025,-1.42575 -0.78404,-1.28402 -1.12307,7.3e-4 -2.25702,-0.051 -3.36344,-0.24998 -1.6953,-0.16259 -3.3845,-0.29734 -5.07924,-0.46588 z"
        id="path6798" inkscape:connector-curvature="0" />
    <path style="fill:#000000;stroke:none"
        d="m 333.33812,450.1197 c -0.31535,0.64051 -1.43287,-0.0906 -0.86359,0.85222 l -0.0909,0.26135 c 0.46097,1.48743 0.32582,3.24587 1.61354,4.36338 0.87191,1.30092 2.09655,2.28502 3.36344,3.14754 1.89843,0.79314 3.86417,1.40831 5.84056,1.97715 0.42083,0.22881 0.74241,0.25662 0.98858,0.15908 0.36639,0.61883 0.72449,1.22544 1.0113,1.8408 1.18248,1.28407 2.48685,2.64056 4.15885,3.22709 -0.26671,0.8631 -0.38204,1.71869 -0.24999,2.55666 0.49621,1.25827 0.14251,3.31225 1.659,3.92023 0.67632,-0.002 1.35603,0.01 2.03397,0.0454 -0.0135,0.0516 -0.0253,0.10105 -0.0341,0.15908 -0.0639,0.33413 -0.0708,0.6838 -0.0568,1.02267 0.0992,0.74881 0.44976,1.41055 0.95449,1.88625 -2.97851,2.06223 -4.88455,5.1382 -8.22678,8.15861 -1.951,1.85563 -3.51511,4.06809 -5.53377,5.85192 -0.8158,0.69181 -1.29166,1.61783 -1.46582,2.61349 -0.0343,0.0216 -0.0508,0.0413 -0.11363,0.0682 -1.91706,0.57122 -3.34242,2.54987 -4.15884,4.23839 1.07071,-1.3383 2.61163,-2.87372 4.09066,-3.7725 0.0414,-0.0231 0.0832,-0.0456 0.125,-0.0682 -0.0384,0.46956 -0.0166,0.94021 0.0682,1.40901 -2.48847,1.93232 -5.1537,4.10437 -7.51092,5.93146 -0.81838,0.80455 -1.20985,1.58855 -1.28401,2.30668 -1.29448,0.28729 -2.43627,1.19269 -3.02255,2.34078 -0.0288,0.33465 0.11913,0.58818 0.31816,0.82949 -0.2425,-0.046 -0.50317,-0.0702 -0.77268,-0.0795 -0.76744,1.01779 -2.29425,1.4965 -2.90892,2.6703 -0.072,0.15888 -0.10266,0.33457 -0.0909,0.49997 -0.21409,0.22608 -0.55442,0.61307 -0.6136,0.64769 -0.64943,0.47102 -1.56747,0.83433 -1.71581,1.70444 -0.0157,0.0698 -0.0214,0.14236 -0.0227,0.2159 -0.39876,0.35151 -0.66357,0.89667 -1.06811,1.23856 -0.60463,0.61847 -1.23367,1.26067 -1.534,2.07942 3.8e-4,0.004 -4.2e-4,0.008 0,0.0114 -1.03551,-0.2033 -2.23533,0.23726 -3.07937,0.62496 1.60434,0.29431 1.25933,-0.28043 3.22708,0.19317 -1.34759,0.86799 -0.0501,2.33544 0.7386,0.48861 0.7219,1.14547 0.39811,2.31283 0.82949,3.57933 0.61249,-1.10928 0.49311,-2.58486 0.0682,-3.49979 0.23578,-0.0104 0.47018,-0.0711 0.68178,-0.19317 0.73842,-0.96178 0.91277,-2.20286 1.6249,-3.18163 0.0238,-0.033 0.0484,-0.0671 0.0682,-0.10227 1.11959,-0.56257 2.49175,-1.67041 2.84074,-2.80665 1.11146,-0.46575 2.00368,-1.32847 2.77257,-2.21578 0.1284,-0.26506 0.20131,-0.50265 0.21589,-0.7045 0.97965,0.0492 1.79118,-1.09296 2.48849,-2.02261 0.20479,0.17764 0.44046,0.34606 0.69314,0.49997 3.93981,-0.61328 8.50627,-3.39522 10.89709,-6.46553 0.0879,-0.19253 0.1462,-0.39726 0.1818,-0.6136 0.69912,-0.15695 1.374,-0.65164 1.93171,-1.13629 5.00679,-4.98726 8.00999,-11.54609 11.71521,-17.44215 0.47715,-0.96905 1.23081,-2.27503 1.14766,-3.36344 0.88775,-0.45298 0.89619,-2.37572 1.2272,-3.29526 0.0842,-0.16604 0.12458,-0.30356 0.125,-0.42043 0.54876,-1.20755 0.25997,-2.74277 -0.0114,-3.99976 -0.60832,-1.69766 -1.83789,-3.13703 -3.1589,-4.31793 -0.29512,-0.13115 -0.6362,-0.27797 -0.97722,-0.43179 0.53278,-0.68767 0.55327,-1.61615 -0.22726,-2.31805 -0.003,-0.008 -0.008,-0.0148 -0.0114,-0.0227 0.34003,-0.24748 0.53464,-0.45634 0.46588,-0.49998 -0.83818,-1.09926 -1.66298,-2.2414 -3.03391,-2.73847 -1.49307,-0.68126 -3.16538,-1.04358 -4.76108,-1.2272 l 0.10227,0.18181 c -0.32717,-0.34547 -0.71268,-0.6293 -1.20448,-0.78405 -0.26282,-1.04256 -1.31538,-1.89631 -2.13624,-2.60212 -1.50094,-1.23048 -3.49757,-1.54618 -5.19287,-2.43167 -1.68171,-0.49509 -3.42504,-0.68251 -5.13606,-1.04539 z"
        id="path7176" inkscape:connector-curvature="0" />
    <path style="fill:#000000;stroke:none"
        d="m 366.37026,412.72418 c -3.01687,0.0289 -5.96852,0.32262 -7.69273,0.86358 -3.3303,-1.43362 -11.72776,1.85653 -14.46505,3.15891 -4.90302,2.11695 -8.28337,6.40676 -12.57881,9.4199 -1.56845,1.50105 -3.55648,2.99811 -4.67017,4.9088 -1.01999,-1.32082 -2.07071,-2.71962 -3.01119,-4.14748 -1.7643,-1.11296 -4.0118,-0.34725 -5.8292,0.24998 -2.94336,1.0143 -5.43841,2.51488 -7.69273,4.74972 l -0.85222,1.19311 c -1.11932,-0.55861 -2.06143,0.94419 -1.79535,1.54536 0.11384,0.44556 -0.15711,0.15314 -2.07942,3.22709 -1.44111,3.43766 -1.78021,7.18804 -2.37486,10.8289 -0.11241,0.44046 -0.22402,1.03759 -0.34089,1.69308 -1.07794,-0.90758 -2.23568,-1.7224 -3.43162,-2.46576 -1.73778,-1.24011 -3.98415,-2.00069 -6.11327,-1.47719 -0.10089,0.1306 -0.2393,0.22561 -0.38634,0.29544 -0.22922,0.0386 -0.43567,0.14034 -0.6136,0.28408 -0.0296,-0.006 -0.0602,-0.0173 -0.0909,-0.0227 -1.38519,0.0792 -9.98908,4.2486 -13.681,7.98816 -1.83634,1.86161 -4.0294,3.94642 -5.14743,6.31781 -1.80815,3.04237 -3.1935,6.29872 -3.74978,9.84033 -0.0556,0.005 -0.1197,0.003 -0.17044,0.0114 l 0.15908,0.0341 c -0.12655,0.81689 -0.20588,1.65167 -0.23862,2.49985 -0.003,0.31819 0.0192,0.61536 0.0682,0.89768 -0.01,-0.001 -0.0242,10e-4 -0.0341,0 l 0.0341,0.0114 c 0.3415,1.94029 1.76446,3.1459 1.99988,5.27242 0.94461,1.8715 2.47783,-0.82316 2.44304,-1.99988 0.19852,-0.67353 0.32535,-1.35219 0.37497,-2.04534 0.0856,-1.19535 -0.023,-2.41076 -0.20453,-3.5907 0.0534,-4.84738 2.3124,-9.4275 5.4315,-13.04468 0.55842,-0.71663 1.15924,-1.37816 1.80671,-1.99988 l 0.0682,0.0795 c -0.0177,-0.0256 -0.0384,-0.0537 -0.0568,-0.0795 2.04175,-1.95907 4.45392,-3.50751 6.84051,-5.02243 1.41345,-1.0889 2.79257,-1.02007 4.67017,-2.68166 0.34993,0.18677 0.7294,0.32016 1.11358,0.38634 1.77667,0.0146 3.63129,-0.15617 5.31786,0.5227 1.33276,0.40664 2.12362,1.6174 3.17027,2.4544 -0.31148,1.84246 -0.65877,3.7153 -1.06812,4.73835 -0.86866,1.96561 -1.43898,1.05391 -1.39764,3.31799 -0.69058,11.136 2.32059,13.63776 2.38622,14.85139 -0.94222,1.70213 1.32384,1.97362 3.45434,1.21584 -0.0912,0.22259 -0.16752,0.44399 -0.2159,0.64769 2.15036,0.43544 3.37306,0.80523 4.94289,-1.06812 0.05,-0.13137 0.11926,-0.2764 0.19317,-0.42043 0.13383,1.48694 0.61414,2.95668 0.34089,4.45428 0.0283,0.52122 0.65563,0.49459 1.01131,0.67042 0.50656,0.39634 0.39432,1.1991 0.78404,1.70444 0.34732,0.51575 0.57876,1.22551 1.2272,1.43174 0.62229,0.19881 1.0377,-0.45792 1.15902,-0.97722 0.41754,-1.53365 0.50071,-3.18082 1.27266,-4.602 0.24479,-0.55269 0.36998,-1.14402 0.55678,-1.71581 1.69028,-1.0593 4.09857,-5.00119 5.44286,-6.45416 1.00185,-1.64822 2.61613,-3.58997 4.43156,-4.9997 2.32529,-1.12651 2.31199,-3.01624 4.46564,-4.27248 1.91556,-3.25295 1.20914,-4.62558 1.48855,-6.51098 -0.119,-1.21489 -0.21447,-2.43827 -0.29544,-3.67024 1.81917,1.94005 3.65621,5.09455 6.6587,3.8975 3.27822,0.0738 6.43006,1.14146 9.57898,1.95443 3.13875,0.67556 6.31074,1.19532 9.329,2.30668 2.76753,0.93132 5.07794,2.91128 8.01089,3.53388 3.09549,1.1397 6.53325,0.3461 9.26081,-1.35219 1.93649,-0.56471 4.51665,-0.207 4.02249,-3.23844 1.57384,-2.53932 2.65078,-5.78656 5.40877,-7.22685 0.0816,-0.063 0.16772,-0.11998 0.24999,-0.18181 l 0.0341,0.0455 c 0.0401,-0.0394 0.0558,-0.0785 0.0568,-0.11363 2.6984,-2.00921 5.69199,-3.44501 7.73818,-6.14737 0.10127,0.11915 0.20296,0.22572 0.3068,0.32953 2.51715,1.79373 3.02197,1.6545 5.69285,2.47712 0.76165,0.30077 2.21428,0.28767 3.44297,-0.23862 0.0625,-0.0181 0.1306,-0.0291 0.19317,-0.0454 l 17.87395,4.01113 c 1.9069,1.38381 3.64342,2.44708 6.4428,3.95431 0.39818,-0.0292 1.01454,-0.29875 1.18175,-0.80677 1.61229,1.75706 6.45137,6.75678 9.62443,7.72681 1.39924,-0.89192 1.54081,-0.61809 2.6703,0.27272 8.45918,4.90139 12.13827,5.95528 13.94235,5.48831 0.75214,-1.38247 0.83292,-1.07344 1.2272,-1.21584 1.3046,0.0974 6.62994,1.14659 10.79482,-0.24998 1.20266,-1.14173 3.6019,-3.80105 3.94295,-4.22703 5.15992,0.0999 2.51997,0.32588 7.21548,-1.18175 1.04754,-0.71822 2.59685,-1.31036 3.67024,-2.31804 1.66292,-1.6722 -0.47751,-7.51815 -1.8408,-9.29491 0.26241,-0.43056 0.61811,-1.69699 0.42043,-2.39758 -0.0745,-0.56995 -2.24565,-3.74805 -3.80659,-5.22697 -0.42721,-0.71691 -0.26037,-0.64372 0.13635,-1.39764 -0.0855,-3.13332 -8.22036,-9.26872 -10.8289,-11.47659 -0.19654,-0.85091 0.98678,-2.43618 -0.125,-2.32941 -4.79634,-3.90931 -12.25091,-6.4292 -17.69213,-8.20406 -0.21257,-0.46603 0.32708,-1.11801 0.0682,-1.92034 -1.94448,-1.56198 -5.53052,-2.35656 -10.34029,-2.12488 -3.27201,-1.05967 -10.56127,0.53397 -14.12417,0.90904 l 0.0227,-0.13636 c -0.0195,0.01 -0.0368,0.0223 -0.0568,0.0341 -0.0333,-0.33997 0.11302,-0.84448 -0.0227,-1.38628 -4.77647,0.25182 -11.03194,1.11191 -13.26058,2.21578 -2.25081,-0.0168 -7.12459,2.01898 -10.39712,4.43155 -1.92441,0.98515 -3.72687,3.64187 -4.0793,5.84057 -1.55455,3.05727 -1.47298,6.50991 -2.39759,9.65852 -1.44537,-2.68983 -3.0765,-5.3245 -4.15884,-8.18134 -1.92662,-2.35703 -1.12792,-5.69638 -2.10215,-8.3745 0.041,0.10503 -0.47647,-1.6317 -4.06794,-1.73853 -0.0362,-1.1312 -2.62112,-2.10369 -6.05646,-2.70439 -0.007,-1.50142 -5.20992,-2.19574 -10.23803,-2.1476 z"
        id="path4874" inkscape:connector-curvature="0" />
    <path style="opacity:0.5;fill:#000000;stroke:none"
        d="m 352.50921,428.08439 c 7.17042,-5.49173 6.99443,-6.66719 12.37729,-14.2489 12.73527,-15.90547 33.18779,-35.62785 49.03433,-48.69326 9.16266,-7.08487 17.45122,-15.94848 28.54394,-19.97806 7.6906,-4.15481 22.88779,-15.47568 24.60003,-2.2034 3.23373,10.08283 -0.89493,17.33772 -7.71559,24.03475 -7.14146,12.81457 -19.9707,17.24112 -31.16458,19.15274 -15.55807,9.19821 -33.90751,18.76796 -49.18565,28.47721 -9.95962,3.5079 -15.68226,15.22206 -26.17659,16.47952 l -0.37022,-1.501 0.0571,-1.51959 0,0 z"
        id="path4899" sodipodi:nodetypes="ccccccccccccc" inkscape:connector-curvature="0" />
    <path style="opacity:0.5;fill:#000000;stroke:none"
        d="m 357.35345,426.66682 c 4.67331,0.80377 9.05243,-1.84453 12.72678,1.43517 0.78353,-0.90701 5.32369,-5.0128 10.19329,-5.87336 4.15877,-2.63701 14.18466,-2.97302 18.56527,-5.33607 6.16007,-6.07452 -25.5054,2.76225 23.18682,-9.62425 4.28535,-1.24669 8.92592,-1.37317 12.92984,-3.37611 1.85389,-0.4713 4.05155,-1.86719 2.85416,-3.50917 12.19272,-1.66512 23.98462,-9.00064 25.39565,-9.78343 2.64432,-2.67129 11.1026,-12.67145 7.77597,-13.4615 -3.91162,-2.37525 -17.89886,2.25901 -22.1041,3.32909 -13.60175,6.73461 -5.85938,3.6798 -19.69695,9.59745 -9.74134,4.16438 -37.05422,17.76545 -46.23475,23.02355 -8.69098,4.85928 -17.81304,9.06884 -27.29859,12.10353 -2.08786,1.53016 0.36395,2.12329 1.70661,1.4751 z"
        id="path4901" sodipodi:nodetypes="cccccccccccccc" inkscape:connector-curvature="0" />
  </g>
</svg>
