<?xml version="1.0" encoding="iso-8859-1"?><!-- Generator: Adobe Illustrator 16.0.4, SVG Export Plug-In . SVG Version: 6.00 Build 0)  -->
<!DOCTYPE svg PUBLIC "-//W3C//DTD SVG 1.1//EN" "http://www.w3.org/Graphics/SVG/1.1/DTD/svg11.dtd">
<svg version="1.1" id="Layer_1" xmlns="http://www.w3.org/2000/svg" x="0px" y="0px" width="612px"
	height="792px" viewBox="0 0 612 792" style="enable-background:new 0 0 612 792;"
	xml:space="preserve">
<path style="fill:none;" d="M340.011,214.013l-0.019-0.026c5.482-2.384,7.655-7.035,5.463-12.716
	c-2.341-6.066-5.091-11.976-7.494-17.563c6.869-0.537,13.505-0.784,20.057-1.663c4.48-0.602,7.151-3.342,6.381-8.358
	c-0.5-3.261-0.841-6.548-1.417-9.795c-1.431-8.067-3.205-16.082-4.356-24.188c-0.836-5.88-0.497-11.938-1.479-17.783
	c-0.459-2.732-2.803-5.148-4.291-7.708c-1.315,2.805-3.742,5.625-3.705,8.411c0.071,5.192,1.556,10.368,2.489,15.545
	c1.674,9.283,3.241,18.588,5.116,27.831c1.185,5.835-0.023,8.021-5.954,8.655c-4.791,0.512-9.626,0.607-14.425,1.061
	c-2.616,0.246-4.343-0.197-5.352-3.049c-3.329-9.41-11.864-13.762-19.882-17.281c-4.038-1.771-10.472,0.385-15.265,2.22
	c-7.464,2.856-11.734,9.575-15.459,16.306c-2.005,3.623-4.859,5.521-8.729,5.688c-5.314,0.229-10.649,0.123-15.972-0.012
	c-3.247-0.083-4.921-1.86-4.395-5.216c0.793-5.06,1.908-10.079,2.474-15.161c1.3-11.682,2.514-23.379,3.426-35.096
	c0.383-4.922-2.98-10.398-5.278-9.453c-4.217,1.736-4.49,5.764-3.933,9.719c2.031,14.411,1.534,28.523-1.604,42.924
	c-1.634,7.497-3.648,17.262,6.344,22.485c0.375,0.196,0.578,0.783,0.789,1.223c1.913,3.993-0.461,13.913-4.189,17.071
	c-1.151-1.818-2.31-3.605-3.425-5.418c-4.23-6.874-9.141-13.363-9.314-22.09c-0.051-2.574-1.743-5.365-3.318-7.609
	c-3.299-4.698-6.952-9.155-10.605-13.592c-1.232-1.497-3.113-2.465-4.33-3.971c-2.554-3.158-4.939-6.461-7.235-9.812
	c-0.858-1.254-1.247-2.822-1.907-4.221c-0.383-0.812-0.741-2.039-1.363-2.224c-0.645-0.19-1.754,0.489-2.377,1.085
	c-1.182,1.129-2.505,2.326-3.103,3.771c-0.396,0.955,0.062,3.263,0.667,3.478c6.111,2.17,10.5,6.393,13.704,11.713
	c4.33,7.189,8.624,14.465,12.108,22.081c3.084,6.741,4.752,14.118,7.6,20.985c1.76,4.247,3.949,7.812,3.771,13.026
	c-0.369,10.759,0.635,21.591,1.556,32.352c0.301,3.516,2.096,6.903,3.207,10.35l0.023,0.04c-4.347,6.938,1.523,19.247,8.025,24.786
	c2.985,2.543,4.623,4.829,3.869,8.638c-4.187-1.916-5.296,0.801-6.413,4.107c1.883,0.895,4.212,2.761,5.017,2.245
	c2.785-1.781,5.04-4.392,7.887-7.052c0.897,1.48,1.598,2.635,2.204,3.636c-2.167,1.74-4.779,2.803-5.517,4.625
	c-2.166,5.346-4.056,10.898-5.206,16.542c-2.872,14.102-5.275,28.299-7.867,42.457l-0.016-0.014
	c2.825-9.367-6.446-12.068-9.938-18.571c-0.808,1.376-1.361,2.319-1.775,3.025c-2.383-2.744-4.443-5.361-8.256-2.473
	c-1.351,0.344-2.701,0.688-4.052,1.031c0.575-1.636,0.823-3.499,1.777-4.872c7.938-11.434,16.163-22.64,26.62-31.996
	c1.264-1.132,2.035-2.814,3.035-4.241c-0.469-0.486-0.938-0.973-1.405-1.458c-2.646,1.747-5.57,3.189-7.873,5.308
	c-4.136,3.805-7.992,7.93-11.795,12.077c-5.543,6.045-11.468,11.844-16.242,18.461c-4.829,6.695-8.279,14.369-12.657,21.413
	c-4.758,7.655-10.026,14.993-14.812,22.631c-3.916,6.25-7.646,12.635-11.094,19.153c-2.759,5.219-4.388,11.101-7.549,16.025
	c-5.446,8.483-11.737,16.422-17.595,24.646c-6.435,9.035-13.171,17.89-19.037,27.284c-4.524,7.246-8.067,15.13-11.729,22.88
	c-1.899,4.018-2.543,8.688-4.746,12.49c-5.566,9.607-11.504,19.016-17.641,28.273c-10.813,16.315-22.043,32.357-32.79,48.716
	c-6.066,9.234-11.855,18.688-17.129,28.392c-3.535,6.503-5.653,13.762-8.927,20.426c-5.059,10.299-8.674,19.965-3.477,31.991
	c3.409,7.889,7.956,13.159,15.323,16.152c12.729,5.17,25.68,3.024,38.104-0.989c13.063-4.221,25.709-9.726,38.589-14.534
	c1.394-0.521,3.628-0.812,4.613-0.069c5.656,4.263,11.67,5.199,18.671,4.292c11.396-1.475,22.294-3.855,31.405-11.322
	c3.527-2.892,7.11-5.834,10.088-9.257c8.011-9.21,17.297-17.795,23.201-28.252c12.297-21.776,22.738-44.601,34.023-67.154
	c2.636,10.549,7.938,19.765,14.885,28.739c7.244,9.359,15.246,16.552,26.077,20.67c8.716,3.314,17.667,5.007,26.735,1.134
	c5.037-2.151,10.018-4.438,14.996-6.723c0.88-0.403,1.805-0.952,2.403-1.684c4.31-5.259,9.039-10.265,12.676-15.962
	c5.219-8.176,9.622-16.871,13.766-24.261c7.001,14.775,13.589,31.112,22.258,46.258c7.96,13.908,17.767,26.835,27.524,39.61
	c5.875,7.691,12.136,15.143,20.987,20.242c11.656,6.715,23.32,9.002,36.202,4.685c1.689-0.566,3.948-0.339,5.675,0.275
	c5.142,1.831,10.019,4.495,15.237,6.009c13.878,4.026,27.724,8.473,41.889,11.092c9.646,1.783,19.682,1.54,29.532-2.026
	c11.728-4.245,17.206-18.307,14.28-28.433c-3.307-11.439-7.541-22.627-11.752-33.781c-2.734-7.242-5.43-14.664-9.418-21.23
	c-6.759-11.127-14.535-21.635-21.868-32.413c-4.385-6.444-8.818-12.858-13.095-19.375c-11.055-16.848-24.883-32.025-31.237-51.72
	c-0.352-1.089-0.944-2.115-1.526-3.111c-6.009-10.289-11.849-20.686-18.113-30.818c-7.542-12.198-15.509-24.134-23.185-36.252
	c-8.074-12.747-16.062-25.549-24.011-38.376c-8.104-13.078-16.001-26.287-24.223-39.291c-3.09-4.887-6.599-9.561-10.333-13.979
	c-9.953-11.774-20.114-23.373-30.251-34.99c-0.852-0.976-2.049-1.889-3.259-2.25c-1.338-0.401-2.876-0.134-4.327-0.157
	c0.802,1.072,1.551,2.188,2.414,3.207c4.66,5.508,9.348,10.992,14.026,16.484c-0.979,0.325-1.959,0.65-2.938,0.976
	c-1.566-0.429-3.134-0.857-5.842-1.599c3.789,7.844,6.743,14.64,10.29,21.11c3.712,6.773,3.12,10.252-4.19,15.58
	c-1-2.337-2.272-4.452-2.822-6.741c-2.627-10.94-5.286-21.884-7.434-32.923c-0.73-3.757-1.879-5.379-5.688-4.162
	c-0.893-1.935-1.868-3.696-2.538-5.566c-1.85-5.164-0.174-8.562,4.515-11.39c4.344-2.619,9.955-4.994,12.081-9.021
	c3.823-7.241,7.252-15.562,7.599-23.572c0.577-13.323-1.27-26.77-2.393-40.139c-0.393-4.681-0.058-8.806,2.939-12.698
	c1.971-2.559,3.588-5.521,4.764-8.536c4.031-10.342,7.08-20.947,13.419-30.463c4.239-6.363,9.015-12.123,13.71-18.048
	c1.369-1.727,1.754-4.232,2.589-6.382c-2.471-0.641-4.941-1.282-7.196-1.868c-0.604,2.867-0.488,4.804-1.361,6.048
	c-4.716,6.721-9.987,13.068-14.454,19.944c-3.585,5.518-6.549,11.485-9.328,17.468c-3.411,7.338-6.308,14.914-9.537,22.34
	c-0.327,0.753-1.409,1.178-2.251,1.841c-4.134-3.632,2.036-11.539-5.544-13.906c-2.447,6.05-2.929,11.104-1.035,16.772
	c1.499,4.49,1.691,9.589,1.602,14.401c-0.181,9.724,0.607,19.237,3.94,28.423c1.946,5.363,1.12,8.27-3.411,11.915
	c-1.146,0.922-1.862,2.361-2.953,3.37c-1.23,1.138-2.663,2.058-2.812,2.17c-7.784-8.798-15.016-16.972-21.906-24.76
	c11.959-2.645,14.661-12.912,15.013-22.382C343.754,216.219,341.306,215.094,340.011,214.013z" />
	<path style="fill-rule:evenodd;clip-rule:evenodd;" d="M366.89,309.049c-4.679-5.492-9.366-10.977-14.026-16.484
	c-0.863-1.02-1.612-2.135-2.414-3.207c1.451,0.023,2.989-0.244,4.327,0.157c1.21,0.361,2.407,1.274,3.259,2.25
	c10.137,11.617,20.298,23.216,30.251,34.99c3.734,4.418,7.243,9.092,10.333,13.979c8.222,13.004,16.118,26.213,24.223,39.291
	c7.948,12.827,15.937,25.629,24.011,38.376c7.676,12.118,15.643,24.054,23.185,36.252c6.265,10.133,12.104,20.529,18.113,30.818
	c0.582,0.996,1.175,2.022,1.526,3.111c6.354,19.694,20.183,34.872,31.237,51.72c4.276,6.517,8.71,12.931,13.095,19.375
	c7.333,10.778,15.109,21.286,21.868,32.413c3.988,6.566,6.684,13.988,9.418,21.23c4.211,11.154,8.445,22.342,11.752,33.781
	c2.926,10.126-2.553,24.188-14.28,28.433c-9.851,3.566-19.887,3.81-29.532,2.026c-14.165-2.619-28.011-7.065-41.889-11.092
	c-5.219-1.514-10.096-4.178-15.237-6.009c-1.727-0.614-3.985-0.842-5.675-0.275c-12.882,4.317-24.546,2.03-36.202-4.685
	c-8.852-5.1-15.112-12.551-20.987-20.242c-9.758-12.775-19.564-25.702-27.524-39.61c-8.669-15.146-15.257-31.482-22.258-46.258
	c-4.144,7.39-8.547,16.085-13.766,24.261c-3.637,5.697-8.366,10.703-12.676,15.962c-0.599,0.731-1.523,1.28-2.403,1.684
	c-4.979,2.285-9.959,4.571-14.996,6.723c-9.068,3.873-18.02,2.181-26.735-1.134c-10.831-4.118-18.833-11.311-26.077-20.67
	c-6.946-8.975-12.249-18.19-14.885-28.739c-11.285,22.554-21.727,45.378-34.023,67.154c-5.904,10.457-15.19,19.042-23.201,28.252
	c-2.978,3.423-6.561,6.365-10.088,9.257c-9.111,7.467-20.009,9.848-31.405,11.322c-7.001,0.907-13.015-0.029-18.671-4.292
	c-0.985-0.742-3.22-0.451-4.613,0.069c-12.88,4.809-25.525,10.313-38.589,14.534c-12.424,4.014-25.374,6.159-38.104,0.989
	c-7.367-2.993-11.914-8.264-15.323-16.152c-5.197-12.026-1.582-21.692,3.477-31.991c3.273-6.664,5.392-13.923,8.927-20.426
	c5.273-9.703,11.062-19.157,17.129-28.392c10.747-16.358,21.977-32.4,32.79-48.716c6.137-9.258,12.074-18.666,17.641-28.273
	c2.203-3.802,2.847-8.473,4.746-12.49c3.662-7.75,7.205-15.634,11.729-22.88c5.866-9.395,12.603-18.249,19.037-27.284
	c5.857-8.225,12.148-16.163,17.595-24.646c3.161-4.925,4.79-10.807,7.549-16.025c3.447-6.519,7.178-12.903,11.094-19.153
	c4.786-7.638,10.055-14.976,14.812-22.631c4.378-7.044,7.828-14.718,12.657-21.413c4.774-6.617,10.699-12.416,16.242-18.461
	c3.803-4.147,7.659-8.272,11.795-12.077c2.303-2.118,5.228-3.561,7.873-5.308c0.468,0.485,0.937,0.972,1.405,1.458
	c-1,1.427-1.771,3.109-3.035,4.241c-10.457,9.356-18.682,20.562-26.62,31.996c-0.954,1.373-1.202,3.236-1.777,4.872
	c-2,3.158-2.021,6.935-4.224,10.363c-2.692,4.193-2.516,10.266-3.425,15.553c-0.455,2.649-1.269,3.982-4.273,2.746
	c-5.926-2.439-6.116-2.271-8.456,3.533c-0.485,1.204-1.145,2.343-1.769,3.486c-6.025,11.037-12.142,22.024-18.064,33.116
	c-4.372,8.188-8.235,16.653-12.812,24.72c-3.283,5.784-7.417,11.106-1.869,17.667c-3.779-1.284-6.785-0.866-8.487,4.703
	c3.653-1.113,6.529-1.99,9.405-2.867c10.9,2.299,26.965-6.908,30.603-17.492c2.93-8.525,5.713-17.11,8.948-25.521
	c3.743-9.73,8.105-19.223,11.845-28.953c4.375-11.384,8.369-22.914,12.115-33.243c-2.146,0.149-5.196,0.363-8.415,0.588
	c1.221-3.929,2.076-6.68,2.931-9.431c3.812-2.889,5.873-0.271,8.256,2.473c0.414-0.706,0.968-1.649,1.775-3.025
	c3.492,6.503,12.764,9.204,9.938,18.571c-0.933,1.161-1.865,2.322-3.714,4.624c-0.229-4.971-0.383-8.349-0.538-11.726
	c-0.604,0.019-1.208,0.037-1.812,0.056c0,2.901,0.221,5.827-0.094,8.694c-0.155,1.416-1.298,2.725-2.355,4.788
	c-1.917-3.363-3.18-5.579-4.443-7.795c-0.448,0.112-0.896,0.224-1.345,0.335c-2.344,7.09-4.688,14.179-7.139,21.595
	c7.114,1.195,4.231,4.297,2.87,7.184c-3.423-0.816-5.674,0.231-6.808,3c-1.521,3.711,0.323,7.807,4.229,9.399
	c5.861,2.392,9.048,1.554,10.525-3.343c3.688-12.224,7.109-24.526,10.638-36.798c2.592-14.158,4.995-28.355,7.867-42.457
	c1.15-5.644,3.04-11.196,5.206-16.542c0.737-1.822,3.35-2.885,5.517-4.625c-0.606-1.001-1.307-2.155-2.204-3.636
	c-2.847,2.66-5.102,5.271-7.887,7.052c-0.805,0.516-3.134-1.351-5.017-2.245c1.117-3.307,2.227-6.023,6.414-4.106
	c0.753-3.81-0.885-6.096-3.87-8.639c-6.502-5.539-12.372-17.849-8.025-24.786c1.097,2.268,2.194,4.534,2.984,6.168
	c1.085-9.249,2.198-18.742,3.312-28.235c0.734,0.052,1.468,0.104,2.202,0.154c-0.462,5.271-0.88,10.545-1.407,15.808
	c-0.239,2.389-1.851,5.679-0.831,6.955c2.755,3.45,6.588,6.04,10.336,9.268c5.971-11.217,12.556-20.354,23.418-26.782
	c-1.418-0.847-2.842-1.623-4.19-2.517c-3.005-1.992-6.716-3.468-8.811-6.18c-5.533-7.161-6.826-16.067-8.089-24.739
	c-0.344-2.357,0.99-5.128,2.051-7.484c1.951-4.336,4.271-8.506,6.437-12.744c-0.475-0.636-0.949-1.271-1.424-1.907
	c-4.707,1.202-9.415,2.405-13.793,3.522c0,6.784,1.393,13.286-0.332,18.814c-2.468,7.91-4.21,15.616-3.784,23.854
	c0.028,0.54-0.746,1.12-1.467,2.129c-0.994-6.681-1.736-12.683-2.883-18.606c-0.269-1.392-1.9-2.52-2.905-3.768
	c-0.826,1.279-2.549,2.74-2.333,3.809c1.373,6.788-1.653,14.539,3.483,19.19c-1.156,3.033-2.649,5.22-2.703,7.44
	c-0.128,5.261,0.428,10.539,0.706,15.811c-1.111-3.446-2.906-6.834-3.207-10.35c-0.921-10.761-1.925-21.593-1.556-32.352
	c0.179-5.215-2.011-8.779-3.771-13.026c-2.848-6.867-4.516-14.244-7.6-20.985c-3.484-7.616-7.778-14.892-12.108-22.081
	c-3.204-5.32-7.593-9.543-13.704-11.713c-0.604-0.215-1.062-2.522-0.667-3.478c0.598-1.445,1.921-2.643,3.103-3.771
	c0.623-0.596,1.732-1.275,2.377-1.085c0.622,0.185,0.98,1.411,1.363,2.224c0.66,1.398,1.049,2.967,1.907,4.221
	c2.296,3.352,4.682,6.654,7.235,9.812c1.217,1.506,3.098,2.474,4.33,3.971c3.653,4.437,7.307,8.894,10.605,13.592
	c1.575,2.244,3.268,5.035,3.318,7.609c0.174,8.727,5.084,15.216,9.314,22.09c1.115,1.812,2.273,3.6,3.425,5.418
	c3.729-3.158,6.103-13.078,4.189-17.071c-0.211-0.439-0.414-1.026-0.789-1.223c-9.992-5.224-7.978-14.988-6.344-22.485
	c3.138-14.4,3.635-28.513,1.604-42.924c-0.558-3.955-0.284-7.982,3.933-9.719c2.298-0.945,5.661,4.531,5.278,9.453
	c-0.912,11.717-2.126,23.414-3.426,35.096c-0.565,5.082-1.681,10.102-2.474,15.161c-0.526,3.355,1.147,5.133,4.395,5.216
	c5.322,0.135,10.657,0.24,15.972,0.012c3.87-0.166,6.725-2.064,8.729-5.688c3.725-6.73,7.995-13.449,15.459-16.306
	c4.793-1.835,11.227-3.991,15.265-2.22c8.018,3.52,16.553,7.871,19.882,17.281c1.009,2.852,2.735,3.295,5.352,3.049
	c4.799-0.453,9.634-0.549,14.425-1.061c5.931-0.635,7.139-2.82,5.954-8.655c-1.875-9.243-3.442-18.548-5.116-27.831
	c-0.934-5.177-2.418-10.353-2.489-15.545c-0.037-2.786,2.39-5.606,3.705-8.411c1.488,2.56,3.832,4.976,4.291,7.708
	c0.981,5.845,0.643,11.903,1.479,17.783c1.151,8.105,2.926,16.12,4.356,24.188c0.576,3.247,0.917,6.534,1.417,9.795
	c0.771,5.017-1.9,7.757-6.381,8.358c-6.552,0.879-13.188,1.126-20.057,1.663c2.403,5.588,5.153,11.497,7.494,17.563
	c2.192,5.681,0.02,10.332-5.463,12.716c-4.71-3.597-6.288-9.156-3.708-14.475c3.193-6.584-1.101-11.181-4.14-15.922
	c-2.676-4.176-7.209-2.581-10.458-1.208c-2.864,1.211-4.918,4.337-7.902,7.158c-5.339-3.965,0.678-11.073-2.718-16.184
	c-1.323-0.114-2.817-0.182-4.293-0.388c-1.392-0.195-2.762-0.536-4.142-0.812c0.476-1.494,0.895-3.01,1.44-4.479
	c1.092-2.938,2.254-5.849,3.555-9.204c-13.087,0.083-25.406,11.104-23.081,21.001c3.1-1.562,5.931-2.988,9.885-4.981
	c2.696,2.607,6.19,5.986,9.958,9.63c0.662-0.911,1.321-2.004,2.164-2.93c0.845-0.929,1.872-1.692,2.818-2.528
	c0.703,1.635,0.808,2.737,0.329,3.448c-1.219,1.814-2.457,4.466-4.143,4.866c-1.529,0.363-3.794-1.622-5.484-2.902
	c-1.587-1.202-2.848-2.836-4.521-4.558c0.679,3.371,1.418,6.067,1.675,8.809c0.102,1.08-0.873,2.261-1.358,3.396
	c-1.021-0.609-2.165-1.081-3.041-1.855c-2.446-2.162-4.446-5.66-7.232-6.436c-5.705-1.588-8.993,0.889-11.004,6.562
	c-0.938,2.646-1.718,5.349-2.556,7.981c4.557,3.922,5.903,10.375,1.3,15.999c-4.635,5.664-2.414,9.519,0.578,14.151
	c4.292,6.645,10.454,8.633,18.284,7.439c9.79-1.493,19.597-3.056,29.723-0.896c3.34,0.712,8.001-1.521,11.118-3.731
	c5.58-3.957,6.06-10.679,6.973-16.926c1.295,1.081,3.743,2.206,3.705,3.238c-0.352,9.47-3.054,19.737-15.013,22.382
	c6.891,7.788,14.122,15.962,21.906,24.76c0.148-0.112,1.581-1.032,2.812-2.17c1.091-1.009,1.808-2.448,2.953-3.37
	c4.531-3.646,5.357-6.552,3.411-11.915c-3.333-9.186-4.121-18.699-3.94-28.423c0.09-4.812-0.103-9.911-1.602-14.401
	c-1.894-5.669-1.412-10.723,1.035-16.772c7.58,2.367,1.41,10.274,5.544,13.906c0.842-0.663,1.924-1.088,2.251-1.841
	c3.229-7.426,6.126-15.002,9.537-22.34c2.779-5.982,5.743-11.95,9.328-17.468c4.467-6.876,9.738-13.224,14.454-19.944
	c0.873-1.244,0.758-3.181,1.361-6.048c2.255,0.586,4.726,1.228,7.196,1.868c-0.835,2.149-1.22,4.655-2.589,6.382
	c-4.695,5.925-9.471,11.685-13.71,18.048c-6.339,9.516-9.388,20.121-13.419,30.463c-1.176,3.016-2.793,5.978-4.764,8.536
	c-2.997,3.893-3.332,8.018-2.939,12.698c1.123,13.369,2.97,26.815,2.393,40.139c-0.347,8.011-3.775,16.331-7.599,23.572
	c-2.126,4.027-7.737,6.402-12.081,9.021c-4.688,2.828-6.364,6.226-4.515,11.39c0.67,1.87,1.646,3.632,2.538,5.566
	c3.809-1.217,4.957,0.405,5.688,4.162c2.147,11.039,4.807,21.982,7.434,32.923c0.55,2.289,1.822,4.404,2.822,6.741
	c7.311-5.328,7.902-8.807,4.19-15.58c-3.547-6.471-6.501-13.267-10.29-21.11c2.708,0.741,4.275,1.17,5.843,1.599
	c4.417,9.381,8.834,18.763,13.253,28.146c3.741-1.951,4.007-1.749,12.536,9.444c-3.858,1.538-7.032,0.057-9.575-3.596
	c1.932,5.941,3.863,11.883,5.944,18.283c2.138-2.648,3.635-4.503,5.131-6.356c0.477,0.261,0.953,0.521,1.43,0.782
	c-0.163,1.518-0.699,3.107-0.421,4.539c1.002,5.161,2.331,10.258,3.383,15.41c0.123,0.604-1.062,1.416-1.032,2.105
	c0.08,1.87,0.128,3.893,0.885,5.533c0.546,1.183,2.21,1.85,2.401,1.996c0.146,3.218-0.299,5.642,0.434,7.632
	c5.879,15.976,11.955,31.879,18.069,47.766c0.421,1.093,1.498,2.103,2.521,2.765c3.459,2.241,7.155,4.128,10.531,6.479
	c7.279,5.068,15.199,6.376,24.832,5.2c-2.919-5.82-5.404-10.776-7.89-15.732c-0.212,0.546-0.424,1.092-0.636,1.639
	c-2.361-0.297-4.724-0.592-7.085-0.889c-0.094-0.498-0.188-0.996-0.282-1.495c1.508-0.995,3.016-1.991,5.418-3.577
	c-3.498-7.484-6.826-15.188-10.648-22.64c-4.921-9.595-10.154-19.032-15.407-28.451c-6.448-11.564-12.809-23.189-19.671-34.507
	c-5.311-8.757-11.047-17.295-17.141-25.525C376.735,319.309,371.604,314.334,366.89,309.049z M356.019,335.979
	c-0.718-3.799-1.435-7.599-2.152-11.397c-1.483,4.337-1.355,8.291,2.124,11.424c-0.817,5.284-1.255,10.468,2.954,14.42
	c0.537-0.136,1.075-0.271,1.612-0.407C359.044,345.338,357.531,340.658,356.019,335.979z M345.036,336.964
	c3.346-6.069-2.657-7.688-5.396-10.925c-0.855,4.812,1.581,8.451,4.312,11.99c-0.205,4.626-0.357,9.255-0.633,13.876
	c-0.203,3.413,1.349,5.033,4.696,4.768c3.263-0.259,4.997-2.104,4.778-5.437c-0.173-2.64-0.812-5.271-0.763-7.897
	C352.126,338.37,350.292,335.885,345.036,336.964z M152.985,449.99c-1.612,0.266-3.226,0.531-4.838,0.797
	c0.317,0.285,0.635,0.57,0.951,0.855c-1.812,2.982-3.323,6.21-5.502,8.895c-4.194,5.169-5.815,12.291-12.146,15.885
	c-0.763,0.434-0.749,2.234-1.094,3.402c-0.244,0.825-0.415,1.68-0.74,2.471c-1.661,4.037-3.362,8.059-5.05,12.086
	c0.824,0.48,1.647,0.96,2.472,1.44c2.996-3.845,6.326-7.479,8.914-11.581c4.499-7.131,8.511-14.569,12.788-21.842
	c1.517-2.579,3.506-4.923,4.699-7.629c0.562-1.275-0.243-3.154-0.43-4.76c6.974-1.538,6.912-8.472,10.058-13.032
	c-4.609,0.281-6.175,4.229-8.393,7.103C153.512,445.587,153.511,447.991,152.985,449.99z M423.059,488.111
	c-2.912-3.454-5.823-6.907-9.119-10.816c-1.717,5.663-3.932,11.59-0.056,15.707c2.358,2.505,7.871,1.604,11.141-1.955
	c1.912-0.51,3.945-0.767,5.699-1.606c1.455-0.697,3.618-2.021,3.685-3.171c0.479-8.232,0.561-16.49,0.584-24.741
	c0.002-0.94-0.933-2.188-1.788-2.776c-4.995-3.441-10.095-6.729-15.986-10.615c-0.121,3.812-2.733,6.485,1.233,9.243
	c1.414,0.982,1.414,3.998,2.06,6.082c-3.375,0.781-3.276-6.14-5.603-1.42c-1.308,2.654,0.273,7.151,1.439,10.511
	C418.193,477.874,420.783,482.938,423.059,488.111z M221.364,458.749c1.726-2.324,4.427-4.43,5.003-7.01
	c2.126-9.525,3.65-19.19,5.2-28.836c1.006-6.267,1.663-12.589,2.382-18.155c-6.051-1.8-10.909-3.246-16.32-4.856
	c-1.807,5.685-3.574,11.248-5.513,17.347c2.831-0.158,4.903-0.274,6.749-0.377c0.51,3.104,0.972,5.917,1.471,8.953
	c-0.823,1.198-2.19,2.751-3.047,4.546c-0.999,2.096-1.553,4.404-2.299,6.62c-2.456-0.787-4.092-1.694-1.658-4.499
	c0.58-0.668,0.307-2.704-0.306-3.624c-0.83-1.247-2.365-2.024-4.449-3.68c-1.7,6.175-4.964,12.229-4.634,18.082
	c0.611,10.837,2.82,21.526,2.559,32.562c-0.272,11.54,0.859,23.119,1.512,34.674c0.28,4.952,1.041,9.879,1.281,14.832
	c0.067,1.383-0.943,2.817-1.459,4.229c-2.194-7.811-2.79-15.08-4.217-22.182c-0.629-3.134-2.541-8.119-4.566-8.493
	c-8.181-1.509-15.564-3.999-21.723-10.712c0.397,2.566,0.662,4.28,0.928,5.994c-3.96-2.566-5.986-1.264-7.915,1.764
	c-1.867,2.932-4.198,5.563-6.173,8.432c-5.306,7.709-10.906,15.252-15.645,23.301c-2.779,4.72-0.191,8.772,5.285,10.161
	c0.893,0.227,1.789,0.439,2.685,0.659c0.035,0.539,0.07,1.079,0.105,1.618c-1.929,0.295-3.881,0.908-5.775,0.765
	c-1.158-0.088-2.384-1.181-3.31-2.096c-3.707-3.665-7.414-3.84-11.44-0.496c-2.428,2.016-5.071,3.769-7.569,5.702
	c-6.929,5.365-7.695,8.478-4.859,16.802c1.217,3.573,2.366,7.324,2.589,11.051c0.714,11.979-2.496,23.57-6.956,34.269
	c-5.829,13.982-13.812,27.067-20.925,40.509c-0.221,0.418-1.072,0.502-3.319,1.469c1.435-4.303,2.073-7.462,3.483-10.227
	c5.055-9.909,10.651-19.547,15.518-29.544c6.78-13.928,9.727-28.47,5.854-43.96c-1.098-4.391-2.579-3.969-5.182-1.455
	c-7.472,7.218-15.143,14.238-22.405,21.659c-10.053,10.272-21.176,19.061-33.726,26.068c-2.452,1.369-5.863,2.516-6.894,4.686
	c-5.222,10.994-11.695,21.628-11.107,34.599c0.677,14.919,13.14,23.823,25.28,24.019c10.758,0.173,20.892-2.284,30.727-5.734
	c25.103-8.806,49.986-18.252,72.633-32.573c9.021-5.705,18.198-10.952,25.656-19.108c6.794-7.431,11.962-15.335,15.112-24.764
	c0.487-1.458,1.623-2.699,2.459-4.04c0.454,0.285,0.908,0.571,1.362,0.857c-3.137,12.397-8.466,24.072-18.223,32.435
	c-13.874,11.891-29.193,21.942-45.974,29.552c-3.689,1.673-7.077,4.012-10.604,6.044c0.024,0.494,0.049,0.988,0.074,1.482
	c2.933,0.755,5.964,2.398,8.781,2.091c7.349-0.801,15.104-1.273,21.764-4.087c7.484-3.162,14.362-8.228,20.774-13.374
	c17.56-14.095,27.997-33.633,37.817-53.174c9.222-18.352,16.635-37.61,24.938-56.428c0.537-1.218,1.883-2.077,2.853-3.104
	c-0.068,1.492-0.405,3.036-0.126,4.46c0.252,1.29,0.988,3.356,1.831,3.53c11.659,2.4,23.305,5.73,35.093,6.41
	c13.134,0.757,26.493-0.264,39.596-1.832c9.154-1.095,18.706-2.307,26.752-7.917c-2.195-7.878-4.441-15.471-6.385-23.14
	c-0.826-3.257-2.85-5.777-3.393-9.495c-1.62-11.094-4.993-21.932-7.67-32.872c-2.281-9.32-5.413-18.536-6.605-27.995
	c-1.549-12.291-1.552-24.777-2.189-36.619c-2.772-1.569-5.207-3.299-7.906-4.353c-1.778-0.695-3.938-0.417-5.926-0.574
	c0.15,2.176-0.564,5.238,0.6,6.375c5.135,5.011,4.24,10.295,1.768,15.898c-0.559,1.266-1.443,2.388-2.289,3.754
	c1.905,1.319,3.515,2.45,5.141,3.557c4.7,3.197,6.848,7.58,5.986,13.249c-0.412,2.717-2.345,6.183-1.289,7.883
	c1.192,1.923,4.967,2.242,7.609,3.28c0.102,0.04,0.115,0.3,0.451,1.266c-1.561,0.457-3.071,1.099-4.642,1.314
	c-2.299,0.315-4.699,0.041-6.953,0.514c-12.484,2.615-24.988,3.321-37.628,1.182c-2.922-0.494-5.957-0.302-8.936-0.496
	c-3.009-0.195-4.098,0.998-4.826,4.133c-4.232,18.208-8.772,36.347-13.396,54.461c-1.218,4.77-3.102,9.369-4.68,14.047
	c-0.26-1.594-1.05-3.318-0.695-4.761c2.443-9.944,5.473-19.754,7.641-29.753c2.663-12.282,7.981-24.135,6.512-37.154
	c-0.049-0.432,0.271-0.949,0.521-1.364c4.174-6.919,4.609-14.312,2.83-21.994c-0.108-0.469-0.429-1.214-0.246-1.377
	c4.478-3.993,1.667-9.575,3.103-14.241c0.768-2.494,0.718-5.24,1.01-7.647c-3.722,0.878-6.612,1.56-9.741,2.298
	c-0.611,1.063-1.525,2.651-2.44,4.24c-0.663-0.332-1.325-0.664-1.989-0.995c1.292-2.716,2.453-5.507,3.938-8.112
	c0.623-1.095,2.246-1.62,2.869-2.715c2.165-3.8,4.79-7.449,4.778-12.151c-0.002-0.726,0.565-1.889,1.146-2.104
	c3.246-1.206,2.515-3.77,2.503-6.241c-0.038-7.708,0.203-15.42,0.034-23.124c-0.13-5.905-0.717-11.801-1.1-17.701
	c-0.883,0.077-1.767,0.155-2.649,0.233c0.513,3.9,1.022,7.803,1.542,11.702c0.175,1.314,0.744,2.704,0.482,3.919
	c-0.428,1.978-1.842,3.792-2.047,5.758c-0.869,8.299-4.975,15.091-9.474,21.772c-1.88,2.791-3.836,5.593-5.232,8.631
	c-1.712,3.72-2.874,7.692-4.272,11.557c-0.339-0.138-0.677-0.274-1.015-0.411c0.395,2.515,0.789,5.029,1.184,7.544
	c-0.383,1.046-0.765,2.092-1.146,3.138c-1.472,7.387-4.045,14.758-4.153,22.164c-0.157,10.835,1.443,21.696,2.317,32.545
	c0.225,2.786,0.537,5.565,0.809,8.348l-0.023-0.019c-0.575,3.878-1.643,7.761-1.606,11.633c0.049,5.344-4.25,10.443-0.849,15.998
	c0.249,0.407-1.054,1.736-1.593,2.661c-0.631,1.083-1.59,2.139-1.76,3.3c-1.125,7.699-2.043,15.429-3.102,23.138
	c-0.382,2.783-0.965,5.538-1.455,8.307c-0.601-0.054-1.2-0.107-1.8-0.161c0-1.887-0.17-3.791,0.026-5.656
	c1.944-18.498,3.934-36.99,5.952-55.479c0.318-2.912,1.289-5.814,1.2-8.697c-0.235-7.629-0.793-15.253-1.407-22.863
	c-0.343-4.249-1.056-8.469-1.601-12.702c-0.475,0.062-0.949,0.123-1.423,0.185c-3.54,23.915-6.521,47.93-10.774,71.716
	c-4.278,23.916-10.734,47.36-18.169,70.492c-0.416-0.015-0.832-0.029-1.249-0.044c-0.189-1.546-0.38-3.091-0.57-4.637
	c0.396-1.395,0.793-2.789,1.189-4.185c2.084-6.637,4.389-13.217,6.114-19.945c0.505-1.969-0.824-4.348-0.972-6.561
	c-0.115-1.729,0.185-3.523,0.625-5.204c0.053-0.2,2.149,0.135,3.551,0.241c1.399-5.715,3.232-11.457,4.062-17.341
	c0.402-2.849-2.548-7.648-1.422-8.63c2.943-2.565,4.1-5.375,4.657-8.841c1.129-7.017,2.41-14.014,3.329-21.058
	c1.705-13.072,3.214-26.171,4.766-39.263c0.404-3.408,0.673-6.833,0.992-10.251c0.439-4.715,0.869-9.43,1.303-14.145
	c0.528-2.074,1.215-4.123,1.558-6.227c1.596-9.785,3.001-19.603,4.662-29.376c1.36-8.005,2.985-15.965,4.493-23.944
	c-0.437-0.102-0.873-0.202-1.311-0.304c-6.061,15.472-10.472,31.423-13.154,47.745c6.126,2.579,3.369,7.823,3.732,12.089
	c-0.978-0.854-1.955-1.709-2.779-2.431c-3.741,3.744-5.618,8.671-5.208,14.468c0.481,6.807-1.806,13.097-3.859,19.409
	c-0.742,2.28-3.011,5.028-2.347,6.644c3.821,9.289,2.094,18.741,1.815,28.18c-0.138,4.649-0.024,9.306-0.024,14.065
	c-4.123,0.168-4.927-1.858-4.852-5.005c0.088-3.632,1.303-8.896-0.565-10.589c-4.709-4.266-3.246-9.884-5.068-14.642
	c-0.61-1.592,1.035-3.934,1.203-5.97c0.188-2.289-0.128-4.62-0.223-6.934C219.841,460.37,220.603,459.56,221.364,458.749z
	 M435.022,509.989c-1.415-1.357-3.536-2.461-4.132-4.114c-4.183-11.598-2.781-10.577-14.039-7.703
	c-0.644,0.164-1.497,0.045-1.92,0.426c-0.915,0.824-2.138,1.8-2.317,2.867c-1.586,9.43-2.95,18.896-4.453,28.339
	c-0.131,0.822-0.788,1.56-1.2,2.337c-1.47-1.812-2-3.608-2.105-5.429c-0.827-14.302,4.808-27.944,3.753-42.47
	c-0.686-9.439,1.741-19.131,2.997-28.681c1.889-14.37-4.89-26.511-9.829-39.124c-0.783-1.999-2.081-3.797-3.141-5.688
	c-0.661,0.335-1.322,0.671-1.983,1.006c1.336,2.753,2.672,5.505,4.165,8.583c-2.365,2.009-5.355,2.91-8.288,0.852
	c-2.938-2.062-5.683-4.651-3.752-8.945c-4.868-0.771-7.032,1.12-6.648,5.5c0.724,8.25,1.177,16.528,2.133,24.75
	c0.45,3.881,1.803,7.658,2.746,11.481c0.582-0.056,1.165-0.111,1.748-0.167c1.287-2.646,2.669-5.251,3.819-7.954
	c0.553-1.299,0.933-2.786,0.92-4.184c-0.022-2.465-0.564-4.926-0.581-7.39c-0.01-1.473,0.677-2.936,0.854-4.427
	c0.24-2.043,0.294-4.108,0.428-6.164c0.426-0.218,0.852-0.436,1.277-0.652c1.418,1.405,3.698,2.618,4.064,4.258
	c0.652,2.923,0.423,6.138,0.059,9.17c-0.519,4.314-1.761,8.548-2.176,12.866c-0.279,2.899,0.338,5.885,0.607,9.563
	c0.318,0.424,1.243,1.654,2.168,2.885c-0.138,0.143-0.279,0.281-0.425,0.415c-1.231,0.328-2.464,0.656-3.967,1.057
	c1.036,4.851-2.442,6.755-5.788,8.75c-0.696-0.479-1.393-0.959-2.088-1.438c-0.878-0.399-2.412-0.656-2.534-1.22
	c-1.39-6.425-2.755-12.867-3.754-19.361c-1.633-10.62-3.023-21.277-4.444-31.929c-0.426-3.192-2.424-4.685-5.12-3.636
	c-1.382,0.538-2.982,3.262-2.758,4.734c1.408,9.228-0.646,19.516,8.432,27.066c-6.863,2.114-4.472,6.856-3.829,10.832
	c0.871,5.398,2.332,10.698,3.404,16.067c3.18,15.912,6.051,31.891,9.506,47.743c2.821,12.949,6.944,25.637,9.314,38.654
	c2.281,12.526,6.198,24.328,11.214,35.94c4.052,9.378,8.762,18.301,16.546,25.008c6.459,5.565,13.367,10.667,20.41,15.485
	c9.136,6.25,18.184,12.86,28.039,17.767c11.219,5.584,23.242,9.576,34.998,14.047c12.717,4.838,26.015,7.16,39.552,6.972
	c13.627-0.189,25.404-5.529,26.382-22.654c0.221-3.866-0.795-7.871-1.653-11.721c-2.927-13.128-6.642-25.465-21.008-31.338
	c-20.752-8.484-35.112-24.739-48.545-41.911c-1.099-1.405-2.424-2.89-3.979-3.58c-0.838-0.371-3.255,0.617-3.489,1.42
	c-3.666,12.562-3.108,25.252,2.009,37.079c4.789,11.069,11.265,21.409,16.998,32.069c1.876,3.489,3.363,6.996,1.258,11.059
	c-2.341-4.518-4.271-8.508-6.436-12.367c-4.633-8.263-9.658-16.315-14.034-24.71c-7.835-15.033-8.46-30.674-2.839-46.594
	c1.511-4.276-1.074-11.522-5.119-14.011c-4.091-2.517-8.035-5.31-12.295-7.493c-1.525-0.782-3.796-0.282-5.7-0.096
	c-1.399,0.137-2.756,0.716-4.131,1.099c0.537-1.426,1.123-2.836,1.598-4.281c0.492-1.499,1.726-3.549,1.167-4.468
	c-3.224-5.31-6.647-10.537-10.454-15.443c-4.216-5.433-8.915-10.49-13.404-15.711c-0.492,0.254-0.984,0.509-1.477,0.763
	c3.738,7.233,7.477,14.468,11.992,23.206c-2.462-0.806-4.34-0.838-4.997-1.75c-1.62-2.251-2.364-5.146-4.038-7.344
	c-2.912-3.823-4.054-9.325-9.717-11.15c0,2.013,0,3.605,0,5.197L435.022,509.989z M315.658,301.637
	c1.086,5.652,4.494,5.418,7.994,5.163c2.322-0.17,4.661-0.106,6.991-0.18c9.055-0.288,9.217-0.297,8.997-9.463
	c-0.146-6.089,0.108-11.788,4.246-16.9c1.317-1.628,1.805-4.835,1.234-6.928c-2.499-9.175-6.245-17.197-14.644-23.347
	c-8.876-6.498-18.466-9.02-28.516-8.14c-15.592,1.365-27.946,9.177-35.322,23.481c-3.865,7.495-4.56,14.955,0.537,22.63
	c2.759,4.153,5.364,9.163,5.728,13.961c0.449,5.938,2.637,7.653,7.939,7.241c0.622-0.049,1.303,0.652,2.901,1.518
	c-3.919,1.374-6.924,2.428-9.515,3.336c-1.111,6.513,3.852,8.383,6.752,11.342c2.011-1.352,3.614-2.842,5.509-3.575
	c1.597-0.617,3.533-0.355,5.319-0.483c-1.215,1.967-2.193,4.158-3.757,5.791c-0.65,0.679-2.795-0.271-3.812,0.308
	c-1.2,0.683-2.955,2.845-2.687,3.291c4.654,7.726,10.851,14.284,19.618,16.677c9.015,2.461,25.29-6.152,29.592-14.7
	c1.647-3.275,2.191-7.045-2.382-8.654c-4.325-1.522-8.827-2.564-13.284-3.689c-3.627-0.915-4.266-2.579-1.616-5.766
	c0.888,0.955,1.792,2.427,2.208,2.3c5.946-1.818,10.452,2.242,15.625,3.504c1.821,0.444,4.78,0.379,5.736-0.731
	c1.518-1.765,2.155-4.569,2.36-7.002c0.061-0.716-2.555-2.28-4.02-2.383c-4.268-0.299-8.573-0.045-12.863-0.026
	c-3.539,0.015-7.077,0.003-10.864,0.003C313.087,307.161,314.047,305.098,315.658,301.637z M364.762,528.52
	c0.572,0.17,1.145,0.34,1.717,0.51c-0.488,2.11-1.119,4.201-1.425,6.338c-0.307,2.14-0.928,4.542-0.283,6.448
	c1.501,4.437,3.725,8.624,5.574,12.947c3.844,8.987,6.835,18.451,11.624,26.898c8.486,14.968,17.524,29.69,27.33,43.823
	c8.038,11.585,18.386,21.347,30.901,28.155c6.868,3.737,14.533,5.731,22.567,4.002c1.318-0.283,2.48-1.286,3.873-2.041
	c-10.451-6.762-20.057-13.271-29.951-19.307c-13.771-8.401-24.566-19.687-30.723-34.418c-5.271-12.613-9.103-25.897-12.71-39.12
	c-4.925-18.05-9.533-36.219-13.353-54.529c-3.918-18.78-6.728-37.792-10.004-56.705c-0.306-1.76-0.479-3.542-0.882-6.584
	c-1.79,4.328-3.944,7.199-3.958,10.079c-0.023,5.217,1.394,10.424,1.89,15.665c0.309,3.268,1.34,7.834-0.314,9.577
	c-2.085,2.196-1.317,3.2-0.715,5.036c0.593,1.812,0.986,3.689,1.467,5.538c0.762,0.91,1.626,2.024,1.725,3.204
	c1.083,12.949,2.04,25.908,3.048,38.864c0.32,4.12,0.688,8.235,1.034,12.354c-0.744,0.118-1.489,0.236-2.233,0.354
	c-0.42-2.023-0.955-4.03-1.232-6.072c-0.467-3.432,0.517-8.35-1.401-10.035c-4.363-3.834-1.897-8.281-2.653-12.26
	c-1.109-5.836-0.417-12.006-1.426-17.872c-1.161-6.757-3.387-13.327-5.005-20.015c-0.172-0.709,0.552-1.695,0.996-2.475
	c0.422-0.739,1.439-1.352,1.484-2.063c0.725-11.669,1.922-23.354,1.737-35.017c-0.099-6.256-3.037-12.415-3.935-18.726
	c-1.061-7.46-4.886-11.873-11.948-14.15c-1.644-0.53-2.749-2.729-4.215-4.278c-1.863,0.851-4.362,1.99-6.229,2.842
	c0,4.506-0.266,8.727,0.054,12.903c0.742,9.729,1.566,19.463,2.817,29.136c0.308,2.381,2.506,4.474,3.582,6.815
	c0.569,1.238,0.824,2.728,0.814,4.102c-0.015,2.289-0.776,4.637-0.458,6.851c0.441,3.073,1.708,6.018,2.409,9.066
	c1.263,5.492,2.074,11.103,3.596,16.517c3.763,13.382,7.815,26.683,11.789,40.005c0.106,0.354,0.651,0.578,1.092,0.947
	C363.535,530.622,364.148,529.571,364.762,528.52z M359.448,541.991c-0.504-0.342-1.008-0.684-1.512-1.025
	c-34.279,10.479-68.647,10.173-103.604,0.471c1.998,6.073,4.018,11.329,5.434,16.744c1.697,6.49,5.896,10.24,11.975,12.177
	c18.73,5.967,37.896,7.433,57.152,3.794c8.758-1.655,18.32-3.314,22.572-13.236C354.162,554.622,356.79,548.3,359.448,541.991z
	 M468.94,511.611c0.254,0.322,0.507,0.644,0.761,0.966c-0.787,0.95-1.39,2.232-2.395,2.789c-2.882,1.597-2.426,3.372-1.582,6.182
	c2.949,9.812,10.682,14.836,18.641,19.73c1.241,0.764,2.853,1.54,4.189,1.391c2.017-0.226,4.317-0.847,5.742-2.135
	c0.684-0.618-0.16-3.213-0.66-4.803c-2.273-7.229-4.594-14.444-7.048-21.613c-2.184-6.381-3.759-13.165-7.106-18.893
	c-2.832-4.847-5.587-9.862-10.686-13.716c-4.571-3.454-6.78-10.188-9.682-15.661c-4.098-7.727-11.102-4.355-16.887-4.302
	c-4.971,0.046-3.408,5.339-3.445,7.994c-0.086,6.343-0.615,13.54,2.07,18.859c4.031,7.983,10.581,14.717,16.222,21.854
	c2.542,3.217,5.386,6.422,9.558,1.693C467.024,511.502,468.154,511.708,468.94,511.611z M153.285,512.749
	c4.751-6.272,9.298-12.149,13.696-18.136c2.347-3.194,5.614-6.322,6.395-9.929c1.534-7.088,1.645-14.486,2.295-21.761
	c0.323-3.609-1.755-4.899-4.937-4.414c-4.433,0.678-8.903,1.379-13.181,2.663c-1.822,0.547-3.646,2.312-4.694,4.003
	c-5.242,8.451-10.483,16.923-15.204,25.668c-2.701,5.002-4.584,10.477-6.524,15.851c-2.899,8.034-5.768,16.098-8.158,24.292
	c-1.092,3.745-4.632,7.709-0.508,12.146c6.033-4.622,12.244-8.754,17.652-13.755c3.264-3.019,5.675-7.192,7.658-11.243
	c0.774-1.583-0.745-4.241-1.067-6.432c-0.126-0.86,0.168-1.782,0.341-3.287C149.131,509.862,150.704,510.955,153.285,512.749z
	 M311.289,352.209c-2.729-0.167-5.646-0.345-8.636-0.527c-0.077,1.438-0.156,2.914-0.235,4.391c-0.457,0.197-0.913,0.394-1.37,0.591
	c-1.265-1.832-2.528-3.664-3.793-5.496c-2.021,0.161-3.62-0.822-5.334-1.101c-3.324-0.539-6.725-0.925-10.062-0.758
	c-0.571,0.028-1.618,3.226-1.35,4.768c0.613,3.525,1.243,7.339,3.062,10.301c3.491,5.682,6.026,11.318,3.902,18.307
	c2.865-2.081,5.131-5.114,7.555-5.246c10.144-0.552,20.334-0.232,30.312-0.232c0.48-1.365,0.886-3.52,1.932-5.299
	c3.539-6.021,4.986-12.53,5.253-19.415c0.119-3.101-0.526-5.589-4.306-4.906c-4.098,0.74-8.116,1.919-11.821,2.821
	c-0.524,1.983-1.02,3.859-1.516,5.735C313.786,354.941,312.689,353.741,311.289,352.209z M555.334,606.824
	c0.398-0.591,0.798-1.182,1.197-1.772c-6.896-10.918-13.375-22.132-20.842-32.644c-4.45-6.266-10.039-11.909-15.883-16.943
	c-4.862-4.188-10.935-6.945-16.288-10.604c-2.722-1.86-5.183-3.443-7.737-0.201c-2.461,3.122-1.625,6.04,0.746,9.004
	c1.444,1.805,2.197,4.149,3.388,6.177c0.459,0.78,1.242,1.386,1.927,2.017c2.902,2.675,6.325,4.953,8.646,8.058
	c9.023,12.066,19.677,22.357,32.275,30.555C546.676,603.014,551.129,604.729,555.334,606.824z M116.15,539.195
	c-18.875,10.244-56.097,52.58-60.225,69.546c6.641-4.739,12.697-8.187,17.686-12.791c13.066-12.062,25.634-24.662,38.466-36.979
	C117.909,553.374,119.857,547.061,116.15,539.195z M194.721,449.743c-2.789,1.691-5.045,3.059-7.3,4.427
	c-4.965,3.013-9.282,6.32-8.226,13.214c0.315,2.061-0.258,4.287-0.593,6.411c-0.872,5.538,1.903,11.52,6.94,14.068
	c2.382,1.205,5.705,1.219,7.402,2.949c2.6,2.648,5.588,3.991,8.256,2.245c1.409-0.922,1.702-4.905,1.172-7.199
	c-2.081-8.997,2.161-18.876-3.855-27.268C201.795,453.594,196.709,452.359,194.721,449.743z M367.525,350.677
	c-0.154,2.204-0.882,4.718-0.384,6.96c1.558,7.013,3.528,13.937,5.434,20.869c1.575,5.732,2.861,11.607,5.166,17.042
	c0.807,1.901,4.154,3.405,6.548,3.783c3.109,0.492,3.402-2.298,3.353-4.812c-0.014-0.686,0.479-1.381,0.8-2.234
	c1.359,1.075,2.37,1.875,3.381,2.675c0.407-0.243,0.813-0.486,1.221-0.729c-5.618-14.849-11.236-29.697-16.753-44.277
	C373.285,350.201,370.755,350.41,367.525,350.677z M339.795,577.393c-10.938,0.984-21.657,2.695-32.377,2.705
	c-10.809,0.009-21.618-1.671-32.518-2.618c0.051-0.227-0.133,0.115-0.064,0.396c0.112,0.468,0.361,0.91,0.596,1.34
	c3.291,6.026,9.399,7.655,15.251,9.352c10.444,3.027,21.232,1.925,31.675,0.6C329.479,588.263,335.824,583.969,339.795,577.393z
	 M285.362,453.696c-0.513-1.338-0.734-2.14-1.109-2.86c-5.403-10.385-4.266-14.9,5.847-21.252c2.745-1.725,3.445-3.691,1.771-6.136
	c-3.87-5.651-2.567-10.383,1.626-15.237c2.738-3.169,3.324-7.032,0.817-11.591c-4.361,3.567-8.556,6.731-12.392,10.282
	c-1.337,1.238-2.37,3.373-2.554,5.198c-1.217,12.143-2.153,24.313-3.209,36.474c-0.295,3.398,0.635,5.562,4.608,5.144
	C282.075,453.58,283.408,453.696,285.362,453.696z M324.962,441.847c-0.851-6.169-2.758-9.292-7.549-11.049
	c-7.489-2.746-14.889-1.002-22.106,0.115c-4.771,0.738-9.448,3.742-10.019,9.706c-0.144,1.511,0.161,3.999,1.056,4.448
	c1.264,0.633,3.681,0.353,4.887-0.524c6.129-4.455,13.441-1.019,20.03-3.34C315.016,439.881,319.806,441.497,324.962,441.847z
	 M485.132,494.574c0.899-0.519,1.799-1.037,2.698-1.556c-1.879-3.231-3.621-6.554-5.679-9.667c-1.792-2.712-4.215-5.021-5.887-7.794
	c-9.935-16.47-19.707-33.038-29.614-49.524c-1.039-1.729-2.605-3.142-3.928-4.7C452.85,448.34,467.214,472.541,485.132,494.574z
	 M336.88,367.994c0,9.495,0,18.523,0,26.898c6.667,2.943,13.026,5.75,18.708,8.258C355.277,396.959,341.747,368.873,336.88,367.994z
	 M328.357,390.089c-12.359-11.784-34.704-11.424-41.017-0.307c2.055,1.23,4.137,3.527,6.243,3.551
	c8.155,0.093,16.328-0.39,24.472-0.978C321.135,392.134,324.15,391.047,328.357,390.089z M254.945,365.824
	c11.163-6.465,11.423-6.502,16.068-1.944c-0.871-1.694-1.742-3.39-2.715-5.28c6.354-8.275,0.23-15.625-2.841-23.275
	c-9.416,3.481-6.503,12.913-8.577,19.95c-0.536,1.818,0.854,4.205,1.457,6.745C257.517,362.941,256.23,364.383,254.945,365.824z
	 M361.385,355.421c-0.55,0.026-1.1,0.054-1.649,0.081c0,2.3-0.284,4.641,0.049,6.892c1.469,9.929,3.396,19.798,4.615,29.756
	c1.137,9.286,0.835,9.323,10.019,9.534C370.038,386.137,365.711,370.778,361.385,355.421z M353.112,384.851
	c0.643-0.127,1.286-0.254,1.929-0.381c0.874-1.354,2.59-2.781,2.48-4.051c-0.542-6.265-1.502-12.5-2.58-18.699
	c-0.064-0.369-2.44-0.362-3.744-0.482c-1.127-0.104-2.26-0.138-3.748-0.223c-4.227,2.942-2.259,7.57-0.86,11.511
	C348.127,376.859,350.885,380.761,353.112,384.851z M315.186,409.112c-0.749-2.1-2.149-4.565-2.412-7.146
	c-0.292-2.867-1.429-3.768-4.048-3.675c-1.988,0.07-4.165-0.56-5.922,0.066c-1.674,0.596-3.6,2.157-4.194,3.749
	c-1.133,3.037-1.397,6.398-1.939,9.193C302.326,410.632,308.652,409.885,315.186,409.112z M365.041,253.425
	c0.456-0.017,0.912-0.033,1.368-0.05c-0.479-4.275-1.225-8.541-1.382-12.829c-0.319-8.73-0.212-17.478-0.548-26.207
	c-0.066-1.718-1.34-3.39-2.057-5.082c-0.612,0.201-1.224,0.401-1.836,0.603C359.337,224.605,359.717,239.218,365.041,253.425z
	 M259.906,329.243c0.672,0.381,1.343,0.763,2.014,1.144c2.767-3.126,6.106-5.938,8.059-9.51c0.981-1.795-0.715-4.955-0.922-7.521
	c-0.24-2.965-0.154-5.955-0.246-8.933c-0.053-1.694-0.177-3.387-0.269-5.08c-0.566-0.057-1.134-0.113-1.7-0.17
	C264.53,309.197,262.219,319.22,259.906,329.243z M268.54,369.98c-3.404-0.557-5.68-1.244-7.945-1.214
	c-2.371,0.032-4.732,0.755-5.841,0.951c1.424,6.237,2.581,11.304,3.846,16.848C264.291,381.652,267.899,376.531,268.54,369.98z
	 M253.097,376.788c-0.405-0.083-0.81-0.166-1.215-0.248c-1.869,12.104-3.739,24.207-5.608,36.312
	c0.502,0.133,1.005,0.266,1.507,0.398c0.482-0.382,1.256-0.674,1.403-1.157c2.103-6.907,4.874-13.733,5.892-20.808
	C255.742,386.644,253.846,381.633,253.097,376.788z M495.349,520.391c0.56,0.146,1.118,0.293,1.678,0.439
	c-0.829,2.777-1.657,5.556-2.953,9.896c1.947-3.271,3.214-6.167,4.923-0.824c1.379-3.591,2.466-6.42,3.553-9.248
	c-0.18-0.096-0.358-0.191-0.538-0.287c-0.996,1.342-1.993,2.684-3.258,4.386c-2.211-3.896,4.581-10.279-2.867-11.229
	c-0.654-2.55-1.193-4.652-2.049-7.985c-4.012,6.952-4.343,12.38-1.231,17.859c0.1,0.175,0.549,0.151,1.03,0.268
	C494.193,522.6,494.771,521.495,495.349,520.391z M246.43,269.962c3.681,4.008,6.323,7.128,9.235,9.973
	c2.003,1.957,3.689,1.407,3.937-1.51c0.294-3.478,0.181-6.689-2.918-9.431C253.018,265.749,250.795,269.51,246.43,269.962z
	 M294.252,450.078c0.029,0.311,0.06,0.621,0.089,0.932c1.125,0.292,2.869,0.228,3.274,0.933c3.129,5.438,7.875,3.814,12.256,2.794
	c1.431-0.334,2.498-2.23,3.731-3.412c-1.615-0.951-3.195-2.619-4.855-2.703c-3.216-0.163-6.477,0.564-9.719,0.924
	C297.437,449.722,295.844,449.9,294.252,450.078z M310.891,161.027c-0.364,1.894-0.927,3.785-1.007,5.697
	c-0.038,0.897,0.746,2.55,1.34,2.638c4.225,0.632,8.496,0.946,13.271,1.412C322.215,164.985,317.968,162.184,310.891,161.027z
	 M280.88,401.978c0.621,0.033,1.241,0.066,1.862,0.101c0.16-1.287,0.851-2.814,0.394-3.82c-2.86-6.294-0.845-12.06,1.552-17.82
	c1.481-3.562-0.113-7.486-3.808-9.275C280.88,381.414,280.88,391.695,280.88,401.978z M503.746,524.313
	c-0.783,4.019-1.633,8.38-2.642,13.556c2.924-0.552,4.256-0.803,5.676-1.07c0.091,1.515,0.157,2.614,0.302,4.997
	c1.271-3.49,2.57-5.632,2.691-7.839c0.098-1.771-1.011-3.756-1.998-5.396C506.933,527.16,505.5,526.114,503.746,524.313z
	 M257.734,326.063c-2.289,10.589-6.27,20.958-5.501,31.941c0.429,0.056,0.858,0.11,1.287,0.166
	C254.925,347.469,256.329,336.766,257.734,326.063z M308.556,422.676c0.304-2.933,0.603-5.817,0.896-8.654
	c-5.855-1.125-5.727-1.119-5.961,3.845c-0.078,1.65-1.003,3.262-1.987,6.246C304.166,423.57,306.24,423.147,308.556,422.676z
	 M349.75,327.087c-1.209-6.366-2.418-12.731-3.628-19.097c-0.945,2.429-0.345,5.129-1.337,6.973
	C341.642,320.807,345.6,323.83,349.75,327.087z M164.295,430.823c0.696,0.37,1.394,0.74,2.09,1.11
	c4.155-7.688,8.311-15.374,12.466-23.062c-0.348-0.192-0.696-0.385-1.045-0.577C173.303,415.804,168.799,423.313,164.295,430.823z
	 M104.693,542.143c0-1.947-0.215-3.925,0.053-5.834c0.369-2.625-1.717-5.692,2.664-7.682c2.02-0.918,2.437-5.363,3.58-8.209
	C101.695,532.397,101.695,532.397,104.693,542.143z M359.847,386.561c-3.882,4.812-2.622,12.652,2.339,14.238
	C361.398,396.004,360.684,391.654,359.847,386.561z M353.337,272.98c7.409-3.001,8.339-5.446,4.024-9.779
	C352.778,267.728,352.341,268.73,353.337,272.98z M438.749,494.56c-0.438-0.699-0.877-1.398-1.315-2.098
	c-2.146,0.686-4.293,1.372-6.44,2.058c1.294,1.321,2.589,2.642,3.883,3.963C436.167,497.175,437.458,495.867,438.749,494.56z
	 M275.923,329.059c-0.231-0.545-0.463-1.09-0.694-1.634c-1.274,0.572-3.358,0.871-3.664,1.772c-0.768,2.263-2.821,5.339,1.282,7.102
	C274.03,333.513,274.977,331.285,275.923,329.059z M119.722,519.664c0.158-0.025,0.317-0.051,0.477-0.077c0-4.479,0-8.958,0-13.437
	c-0.429,0.021-0.856,0.043-1.284,0.065C119.184,510.698,119.452,515.182,119.722,519.664z M264.779,183.98
	c-0.06-0.233-0.12-0.467-0.18-0.699c-3.729-0.254-7.458-0.508-11.187-0.761c-0.017,0.486-0.032,0.974-0.048,1.46
	C257.17,183.98,260.975,183.98,264.779,183.98z M331.271,400.164c0.751-0.517,1.502-1.034,2.253-1.551
	c-1.046-1.552-2.033-3.152-3.229-4.579c-0.124-0.148-1.485,0.739-2.272,1.146C329.106,396.842,330.188,398.503,331.271,400.164z
	 M390.404,408.791c2.004-1.511,3.772-2.844,6.121-4.613c-3.324-0.272-5.62-0.46-7.918-0.649
	C389.182,405.208,389.755,406.888,390.404,408.791z" />
	<path style="fill-rule:evenodd;clip-rule:evenodd;fill:none;" d="M366.89,309.049c4.714,5.285,9.846,10.26,14.042,15.928
	c6.094,8.23,11.83,16.769,17.141,25.525c6.862,11.317,13.223,22.942,19.671,34.507c5.253,9.419,10.486,18.856,15.407,28.451
	c3.822,7.451,7.15,15.155,10.648,22.64c-2.402,1.586-3.91,2.582-5.418,3.577c0.094,0.499,0.188,0.997,0.282,1.495
	c2.361,0.297,4.724,0.592,7.085,0.889c0.212-0.547,0.424-1.093,0.636-1.639c2.485,4.956,4.971,9.912,7.89,15.732
	c-9.633,1.176-17.553-0.132-24.832-5.2c-3.376-2.352-7.072-4.238-10.531-6.479c-1.022-0.662-2.1-1.672-2.521-2.765
	c-6.114-15.887-12.19-31.79-18.069-47.766c-0.732-1.99-0.288-4.414-0.434-7.632c-0.191-0.146-1.855-0.813-2.401-1.996
	c-0.757-1.641-0.805-3.663-0.885-5.533c-0.029-0.689,1.155-1.502,1.032-2.105c-1.052-5.152-2.381-10.249-3.383-15.41
	c-0.278-1.432,0.258-3.021,0.421-4.539c-0.477-0.261-0.953-0.521-1.43-0.782c-1.496,1.854-2.993,3.708-5.131,6.356
	c-2.081-6.4-4.013-12.342-5.944-18.283c2.543,3.652,5.717,5.134,9.575,3.596c-8.529-11.193-8.795-11.396-12.536-9.444
	c-4.419-9.384-8.836-18.766-13.253-28.146C364.931,309.699,365.91,309.374,366.89,309.049z M422.1,419.885
	c-0.621-5.393-3.325-7.411-8.82-6.05c1.5,3.429,2.201,7.174,6.489,8.423c1.395,2.441,2.501,5.137,4.322,7.202
	c0.761,0.862,3.041,0.386,4.631,0.519c-0.257-1.607-0.013-3.597-0.881-4.739C426.279,423.187,424.05,421.642,422.1,419.885z
	 M405.693,398.254c0.422-0.291,0.845-0.582,1.268-0.873c-1.021-2.144-1.894-4.381-3.165-6.362c-0.318-0.497-2.281-0.586-2.825-0.108
	c-0.547,0.48-0.729,2.303-0.265,2.837C402.165,395.426,404.002,396.776,405.693,398.254z" />
	<path style="fill-rule:evenodd;clip-rule:evenodd;fill:none;" d="M227.023,339.979c-0.854,2.751-1.71,5.502-2.931,9.431
	c3.219-0.225,6.269-0.438,8.415-0.588c-3.746,10.329-7.74,21.859-12.115,33.243c-3.739,9.73-8.102,19.223-11.845,28.953
	c-3.235,8.41-6.019,16.995-8.948,25.521c-3.638,10.584-19.702,19.791-30.603,17.491c-0.306-0.611-0.612-1.224-0.918-1.835
	c-5.548-6.561-1.414-11.883,1.869-17.667c4.577-8.066,8.44-16.532,12.812-24.72c5.923-11.092,12.039-22.079,18.064-33.116
	c0.624-1.144,1.283-2.282,1.769-3.486c2.34-5.804,2.53-5.973,8.456-3.533c3.005,1.236,3.818-0.097,4.273-2.746
	c0.909-5.287,0.732-11.359,3.425-15.553c2.202-3.429,2.224-7.205,4.224-10.363C224.322,340.666,225.673,340.322,227.023,339.979z
	 M204.579,376.265c-0.277,1.89-0.649,4.347-0.996,6.808c-0.447,3.168-0.888,6.337-1.302,9.51c-0.179,1.374-0.191,2.774-0.438,4.133
	c-1.083,5.939-4.802,10.53-8.366,15.016c-4.311,5.426-4.48,13.57-11.548,17.205c-0.834,0.429-1.495,3.305-0.996,3.803
	c1.263,1.259,3.231,1.809,4.918,2.643c-0.853-5.557,0.728-8.285,5.213-9.697c1.005-0.316,2.354-1.988,2.266-2.914
	c-0.438-4.632,3.282-7.416,4.794-11.124c3.432-8.418,11.664-14.543,12.027-24.585c0.019-0.502,0.737-1.127,1.277-1.437
	c4.48-2.564,2.201-6.811,2.462-10.366c0.025-0.346-2.098-1.341-3.064-1.164C208.812,374.463,206.906,375.415,204.579,376.265z
	 M167.777,446.538c3.707,2.195,7.382-0.215,10.542-2.55c1.792-1.323,2.605-4.032,3.642-6.221c0.107-0.227-1.617-1.812-1.911-1.659
	c-2.273,1.19-4.582,2.444-6.527,4.094C171.593,441.838,170.074,443.959,167.777,446.538z" />
	<path style="fill-rule:evenodd;clip-rule:evenodd;fill:none;" d="M212.811,579.183c0.19,1.546,0.381,3.091,0.57,4.637
	c0.417,0.015,0.833,0.029,1.249,0.044c7.435-23.132,13.891-46.576,18.169-70.492c4.254-23.786,7.234-47.801,10.774-71.716
	c0.474-0.062,0.948-0.123,1.423-0.185c0.545,4.233,1.258,8.453,1.601,12.702c0.614,7.61,1.172,15.234,1.407,22.863
	c0.089,2.883-0.882,5.785-1.2,8.697c-2.019,18.489-4.008,36.981-5.952,55.479c-0.196,1.865-0.026,3.77-0.026,5.656
	c0.6,0.054,1.199,0.107,1.8,0.161c0.49-2.769,1.073-5.523,1.455-8.307c1.059-7.709,1.977-15.438,3.102-23.138
	c0.17-1.161,1.129-2.217,1.76-3.3c0.539-0.925,1.842-2.254,1.593-2.661c-3.401-5.555,0.897-10.654,0.849-15.998
	c-0.036-3.872,1.031-7.755,1.607-11.633c2.972-2.498,5.351-5.256,5.012-9.201c-0.74-0.285-1.481-0.571-2.223-0.856
	c-0.922,3.358-1.845,6.718-2.767,10.076c-0.271-2.782-0.584-5.562-0.809-8.348c-0.874-10.849-2.475-21.71-2.317-32.545
	c0.108-7.406,2.682-14.777,4.152-22.163c0.794,1.894,0.188,5.181,3.962,4.159c3.83-1.037,5.631-6.209,2.835-11.617
	c-0.664,2.481-1.328,4.962-2.033,7.599c-1.38-1.251-2.498-2.266-3.616-3.279c-0.395-2.515-0.789-5.029-1.184-7.544
	c0.338,0.137,0.676,0.273,1.015,0.411c1.398-3.864,2.561-7.837,4.272-11.557c1.396-3.038,3.353-5.84,5.232-8.631
	c4.499-6.682,8.604-13.474,9.474-21.772c0.205-1.966,1.619-3.78,2.047-5.758c0.262-1.215-0.308-2.604-0.482-3.919
	c-0.52-3.899-1.029-7.802-1.542-11.702c0.883-0.078,1.767-0.156,2.649-0.233c0.383,5.9,0.97,11.796,1.1,17.701
	c0.169,7.704-0.072,15.416-0.034,23.124c0.012,2.472,0.743,5.035-2.503,6.241c-0.581,0.216-1.148,1.379-1.146,2.104
	c0.012,4.702-2.613,8.352-4.778,12.151c-0.623,1.095-2.246,1.62-2.869,2.715c-1.485,2.605-2.646,5.396-3.938,8.112
	c0.664,0.331,1.326,0.663,1.989,0.995c0.915-1.589,1.829-3.177,2.44-4.24c3.129-0.738,6.02-1.42,9.741-2.298
	c-0.292,2.407-0.242,5.153-1.01,7.647c-1.436,4.666,1.375,10.248-3.103,14.241c-0.183,0.163,0.138,0.908,0.246,1.377
	c1.779,7.682,1.344,15.075-2.83,21.994c-0.25,0.415-0.57,0.933-0.521,1.364c1.47,13.02-3.849,24.872-6.512,37.154
	c-2.168,9.999-5.197,19.809-7.641,29.753c-0.354,1.442,0.436,3.167,0.695,4.761l0.013-0.02c-0.97,1.026-2.315,1.886-2.853,3.104
	c-8.303,18.817-15.716,38.076-24.938,56.428c-9.82,19.541-20.258,39.079-37.817,53.174c-6.412,5.146-13.29,10.212-20.774,13.374
	c-6.659,2.813-14.415,3.286-21.764,4.087c-2.817,0.308-5.849-1.336-8.781-2.091c-0.025-0.494-0.05-0.988-0.074-1.482
	c3.526-2.032,6.914-4.371,10.604-6.044c16.78-7.609,32.1-17.661,45.974-29.552c9.757-8.362,15.086-20.037,18.223-32.435
	c-0.454-0.286-0.908-0.572-1.362-0.857c-0.836,1.341-1.972,2.582-2.459,4.04c-3.15,9.429-8.318,17.333-15.112,24.764
	c-7.458,8.156-16.635,13.403-25.656,19.108c-22.646,14.321-47.53,23.768-72.633,32.573c-9.835,3.45-19.969,5.907-30.727,5.734
	c-12.141-0.195-24.604-9.1-25.28-24.019c-0.588-12.971,5.886-23.604,11.107-34.599c1.03-2.17,4.441-3.316,6.894-4.686
	c12.55-7.008,23.673-15.796,33.726-26.068c7.263-7.421,14.934-14.441,22.405-21.659c2.603-2.514,4.084-2.936,5.182,1.455
	c3.873,15.49,0.927,30.032-5.854,43.96c-4.866,9.997-10.463,19.635-15.518,29.544c-1.41,2.765-2.049,5.924-3.483,10.227
	c2.247-0.967,3.099-1.051,3.319-1.469c7.113-13.441,15.096-26.526,20.925-40.509c4.46-10.698,7.67-22.289,6.956-34.269
	c-0.223-3.727-1.372-7.478-2.589-11.051c-2.836-8.324-2.069-11.437,4.859-16.802c2.498-1.934,5.142-3.687,7.569-5.702
	c4.026-3.344,7.733-3.169,11.44,0.496c0.926,0.915,2.151,2.008,3.31,2.096c1.895,0.144,3.847-0.47,5.775-0.765
	c-0.035-0.539-0.07-1.079-0.105-1.618c-0.896-0.22-1.792-0.433-2.685-0.659c-5.477-1.389-8.064-5.441-5.285-10.161
	c4.738-8.049,10.339-15.592,15.645-23.301c1.975-2.868,4.306-5.5,6.173-8.432c1.929-3.027,3.955-4.33,7.915-1.764
	c-0.266-1.714-0.53-3.428-0.928-5.994c6.158,6.713,13.542,9.203,21.723,10.712c2.025,0.374,3.938,5.359,4.566,8.493
	c1.427,7.102,2.022,14.371,4.217,22.182c0.516-1.411,1.526-2.846,1.459-4.229c-0.24-4.953-1.001-9.88-1.281-14.832
	c-0.652-11.555-1.784-23.134-1.512-34.674c0.262-11.036-1.947-21.726-2.559-32.562c-0.33-5.853,2.934-11.907,4.634-18.082
	c2.084,1.655,3.619,2.433,4.449,3.68c0.612,0.92,0.886,2.956,0.306,3.624c-2.434,2.805-0.798,3.712,1.658,4.499
	c0.342,0.688,0.684,1.376,1.025,2.063c-0.551,2.856-1.512,5.423-1.506,8.647c0.008,3.999,0.48,6.499,3.466,8.961
	c0.032,1.445-5.633,4.436,1.103,4.53c0.096,2.312,0.412,4.644,0.224,6.933c-0.168,2.036-1.813,4.378-1.203,5.97
	c1.822,4.758,0.359,10.376,5.068,14.642c1.868,1.692,0.653,6.957,0.565,10.589c-0.075,3.146,0.729,5.173,4.852,5.005
	c0-4.76-0.113-9.416,0.024-14.065c0.278-9.438,2.006-18.891-1.815-28.18c-0.664-1.615,1.604-4.363,2.347-6.644
	c2.054-6.312,4.341-12.603,3.859-19.409c-0.41-5.797,1.467-10.724,5.208-14.468c0.824,0.722,1.802,1.576,2.779,2.431l0.02,0.017
	c-0.434,4.715-0.863,9.43-1.303,14.145c-0.319,3.418-0.588,6.843-0.992,10.251c-1.552,13.092-3.061,26.19-4.766,39.263
	c-0.919,7.044-2.2,14.041-3.329,21.058c-0.558,3.466-1.714,6.275-4.657,8.841c-1.126,0.981,1.824,5.781,1.422,8.63
	c-0.83,5.884-2.663,11.626-4.062,17.341c-1.401-0.106-3.498-0.441-3.551-0.241c-0.44,1.681-0.74,3.475-0.625,5.204
	c0.147,2.213,1.477,4.592,0.972,6.561c-1.726,6.729-4.03,13.309-6.114,19.945c-0.5-1.978-1.001-3.956-1.803-7.125
	c-2.062,3.384-3.552,5.83-5.123,8.408C209.077,577.294,210.943,578.238,212.811,579.183z M164.988,518.986
	c1.737-2.158,3.476-4.317,5.213-6.477c-1.399-0.955-2.799-1.91-3.543-2.417c-1.422,2.521-2.356,4.178-3.44,6.097
	c0.414,0.652,1.104,1.74,1.795,2.828c-4.683,0.718-6.757,4.367-3.952,9.131C162.563,524.645,163.775,521.815,164.988,518.986z
	 M130.464,652.175c0.741-0.241,1.481-0.483,2.223-0.725c-1.39-4.153-2.78-8.306-4.17-12.458c-0.736,0.239-1.473,0.479-2.209,0.717
	C127.692,643.864,129.078,648.02,130.464,652.175z M222.361,513.865c0.015,0.459,0.029,0.917,0.043,1.375
	c1.83-0.411,4.447-0.238,5.295-1.38c1.111-1.496,0.825-4.028,1.141-6.115c0.285,0.671,0.571,1.342,0.856,2.013
	C227.252,511.127,224.807,512.496,222.361,513.865z M170.776,537.817c-2.619,2.562-3.781,4.92,0.106,7.238
	C169.191,542.72,176.062,540.314,170.776,537.817z" />
	<path style="fill-rule:evenodd;clip-rule:evenodd;fill:none;" d="M400.195,461.78c-0.925-1.23-1.85-2.461-2.168-2.885
	c-0.27-3.679-0.887-6.664-0.607-9.563c0.415-4.318,1.657-8.552,2.176-12.866c0.364-3.032,0.594-6.247-0.059-9.17
	c-0.366-1.64-2.646-2.853-4.064-4.258c-0.426,0.217-0.852,0.435-1.277,0.652c-0.134,2.056-0.188,4.121-0.428,6.164
	c-0.177,1.491-0.863,2.954-0.854,4.427c0.017,2.464,0.559,4.925,0.581,7.39c0.013,1.397-0.367,2.885-0.92,4.184
	c-1.15,2.703-2.532,5.309-3.819,7.954c-0.583,0.056-1.166,0.111-1.748,0.167c-0.943-3.823-2.296-7.601-2.746-11.481
	c-0.956-8.222-1.409-16.5-2.133-24.75c-0.384-4.38,1.78-6.271,6.648-5.5c-1.931,4.294,0.813,6.883,3.752,8.945
	c2.933,2.059,5.923,1.157,8.288-0.852c-1.493-3.078-2.829-5.83-4.165-8.583c0.661-0.335,1.322-0.671,1.983-1.006
	c1.06,1.892,2.357,3.689,3.141,5.688c4.939,12.613,11.718,24.754,9.829,39.124c-1.256,9.55-3.683,19.241-2.997,28.681
	c1.055,14.525-4.58,28.168-3.753,42.47c0.105,1.82,0.636,3.616,2.105,5.429c0.412-0.777,1.069-1.515,1.2-2.337
	c1.503-9.443,2.867-18.909,4.453-28.339c0.18-1.067,1.402-2.043,2.317-2.867c0.423-0.381,1.276-0.262,1.92-0.426
	c11.258-2.874,9.856-3.895,14.039,7.703c0.596,1.653,2.717,2.757,4.132,4.114c-3.922,3.491,0.771,6.198,0.759,9.331
	c2.69-3.384,0.187-6.277-0.79-9.316c0-1.592,0-3.185,0-5.197c5.663,1.825,6.805,7.327,9.717,11.15
	c1.674,2.197,2.418,5.093,4.038,7.344c0.657,0.912,2.535,0.944,4.997,1.75c-4.516-8.738-8.254-15.973-11.992-23.206
	c0.492-0.254,0.984-0.509,1.477-0.763c4.489,5.221,9.188,10.278,13.404,15.711c3.807,4.906,7.23,10.134,10.454,15.443
	c0.559,0.919-0.675,2.969-1.167,4.468c-0.475,1.445-1.061,2.855-1.598,4.281c1.375-0.383,2.731-0.962,4.131-1.099
	c1.904-0.187,4.175-0.687,5.7,0.096c4.26,2.184,8.204,4.977,12.295,7.493c4.045,2.488,6.63,9.734,5.119,14.011
	c-5.621,15.92-4.996,31.561,2.839,46.594c4.376,8.395,9.401,16.447,14.034,24.71c2.165,3.859,4.095,7.85,6.436,12.367
	c2.105-4.062,0.618-7.569-1.258-11.059c-5.733-10.66-12.209-21-16.998-32.069c-5.117-11.827-5.675-24.517-2.009-37.079
	c0.234-0.803,2.651-1.791,3.489-1.42c1.556,0.69,2.881,2.175,3.979,3.58c13.433,17.172,27.793,33.427,48.545,41.911
	c14.366,5.873,18.081,18.21,21.008,31.338c0.858,3.85,1.874,7.854,1.653,11.721c-0.978,17.125-12.755,22.465-26.382,22.654
	c-13.537,0.188-26.835-2.134-39.552-6.972c-11.756-4.471-23.779-8.463-34.998-14.047c-9.855-4.906-18.903-11.517-28.039-17.767
	c-7.043-4.818-13.951-9.92-20.41-15.485c-7.784-6.707-12.494-15.63-16.546-25.008c-5.016-11.612-8.933-23.414-11.214-35.94
	c-2.37-13.018-6.493-25.705-9.314-38.654c-3.455-15.853-6.326-31.831-9.506-47.743c-1.072-5.369-2.533-10.669-3.404-16.067
	c-0.643-3.976-3.034-8.718,3.829-10.832c-9.077-7.551-7.023-17.839-8.432-27.066c-0.225-1.473,1.376-4.196,2.758-4.734
	c2.696-1.049,4.694,0.443,5.12,3.636c1.421,10.651,2.812,21.309,4.444,31.929c0.999,6.494,2.364,12.937,3.754,19.361
	c0.122,0.563,1.656,0.82,2.534,1.221c-3.213,0.43-3.869,2.43-2.456,4.892c0.941,1.642,2.672,2.83,4.05,4.221
	c0.537-2.022,1.159-4.029,1.544-6.081c0.085-0.449-0.678-1.058-1.05-1.594c3.346-1.995,6.824-3.899,5.788-8.75
	c1.503-0.4,2.735-0.729,3.969-1.059c0.114,5.142,4.45,5.659,7.716,7.365C407.032,465.007,404.178,462.84,400.195,461.78z
	 M398.666,522.896c0.443-6.819,1.51-12.617-4.871-16.447c1.208-0.313,2.385-0.618,3.72-0.964c-0.765-3.667-1.456-6.979-2.26-10.835
	c-2.546,1.151-4.438,2.008-6.429,2.908c2.244,12.23,4.572,24.073,10.657,34.923C403.33,529.05,402.959,526.894,398.666,522.896z
	 M406.76,545.77c-0.532,0.375-1.063,0.749-1.595,1.123c-1.315,5.382,0.384,7.088,9.35,7.685
	C411.354,550.988,409.057,548.379,406.76,545.77z M393.098,489.372c0-2.026,0.502-3.775-0.096-4.977
	c-1.654-3.322-4.215-4.874-5.272,0.131C387.108,487.467,389.268,489.73,393.098,489.372z M441.367,536.317
	c5.01-0.684,1.85-4.308,2.062-6.38c0.073-0.71-2.651-1.707-4.097-2.572c-0.254,0.401-0.507,0.803-0.76,1.203
	C439.436,530.961,440.298,533.354,441.367,536.317z M401.892,542.946c0.448,0.253,0.897,0.505,1.346,0.757
	c1.172-1.466,3.541-3.269,3.245-4.322c-0.499-1.776-2.688-3.078-4.167-4.58c-0.361,0.33-0.722,0.66-1.083,0.99
	C401.452,538.177,401.672,540.562,401.892,542.946z M447.119,547.277c-0.84-3.498-1.63-6.786-2.627-10.934
	C441.426,540.996,443.103,546.453,447.119,547.277z M448.844,559.269c0.832-0.321,1.664-0.643,2.496-0.964
	c-1.325-3.18-2.65-6.36-3.976-9.541c-0.781,0.319-1.562,0.64-2.344,0.959C446.295,552.904,447.569,556.087,448.844,559.269z
	 M465.118,555.463c0.715-0.298,1.431-0.596,2.146-0.894c-1.2-2.974-2.4-5.947-3.6-8.921c-0.888,0.383-1.775,0.766-2.662,1.149
	C462.374,549.686,463.746,552.574,465.118,555.463z" />
	<path style="fill-rule:evenodd;clip-rule:evenodd;fill:none;" d="M255.994,530.012c1.578-4.678,3.462-9.277,4.68-14.047
	c4.624-18.114,9.164-36.253,13.396-54.461c0.729-3.135,1.817-4.328,4.826-4.133c2.979,0.194,6.014,0.002,8.936,0.496
	c12.64,2.14,25.144,1.434,37.628-1.182c2.254-0.473,4.654-0.198,6.953-0.514c1.57-0.216,3.081-0.857,4.642-1.314
	c-0.336-0.966-0.35-1.226-0.451-1.266c-2.643-1.038-6.417-1.357-7.609-3.28c-1.056-1.7,0.877-5.166,1.289-7.883
	c0.861-5.669-1.286-10.052-5.986-13.249c-1.626-1.106-3.235-2.237-5.141-3.557c0.846-1.366,1.73-2.488,2.289-3.754
	c2.473-5.604,3.367-10.888-1.768-15.898c-1.164-1.137-0.449-4.199-0.6-6.375c1.988,0.157,4.147-0.121,5.926,0.574
	c2.699,1.054,5.134,2.783,7.906,4.353c0.638,11.842,0.641,24.328,2.189,36.619c1.192,9.459,4.324,18.675,6.605,27.995
	c2.677,10.94,6.05,21.778,7.67,32.872c0.543,3.718,2.566,6.238,3.393,9.495c1.943,7.669,4.189,15.262,6.385,23.14
	c-8.046,5.61-17.598,6.822-26.752,7.917c-13.103,1.568-26.462,2.589-39.596,1.832c-11.788-0.68-23.434-4.01-35.093-6.41
	c-0.843-0.174-1.579-2.24-1.831-3.53c-0.279-1.424,0.058-2.968,0.126-4.46L255.994,530.012z" />
	<path style="fill-rule:evenodd;clip-rule:evenodd;fill:none;" d="M315.658,301.637c-1.611,3.461-2.571,5.524-3.992,8.577
	c3.787,0,7.325,0.012,10.864-0.003c4.29-0.019,8.596-0.272,12.863,0.026c1.465,0.103,4.08,1.667,4.02,2.383
	c-0.205,2.433-0.843,5.237-2.36,7.002c-0.956,1.11-3.915,1.176-5.736,0.731c-5.173-1.262-9.679-5.322-15.625-3.504
	c-0.416,0.127-1.32-1.345-2.208-2.3c-2.649,3.187-2.011,4.851,1.616,5.766c4.457,1.125,8.959,2.167,13.284,3.689
	c4.573,1.609,4.029,5.379,2.382,8.654c-4.302,8.548-20.577,17.161-29.592,14.7c-8.768-2.393-14.964-8.951-19.618-16.677
	c-0.269-0.446,1.486-2.608,2.687-3.291c1.017-0.578,3.161,0.371,3.812-0.308c1.563-1.633,2.542-3.824,3.757-5.791
	c-1.786,0.128-3.723-0.134-5.319,0.483c-1.895,0.733-3.498,2.224-5.509,3.575c-2.9-2.959-7.863-4.829-6.752-11.342
	c2.591-0.908,5.596-1.962,9.515-3.336c-1.599-0.865-2.279-1.566-2.901-1.518c-5.303,0.412-7.49-1.303-7.939-7.241
	c-0.363-4.798-2.969-9.808-5.728-13.961c-5.097-7.675-4.402-15.135-0.537-22.63c7.376-14.305,19.73-22.116,35.322-23.481
	c10.05-0.88,19.64,1.642,28.516,8.14c8.398,6.149,12.145,14.172,14.644,23.347c0.57,2.093,0.083,5.3-1.234,6.928
	c-4.138,5.112-4.392,10.812-4.246,16.9c0.22,9.166,0.058,9.175-8.997,9.463c-2.33,0.073-4.669,0.01-6.991,0.18
	C320.152,307.055,316.744,307.289,315.658,301.637z M304.979,305.988c1.811-0.808,4.071-1.201,5.301-2.541
	c1.14-1.242,1.435-3.482,1.525-5.312c0.022-0.473-2.12-1.052-2.658-1.3c0-6.327,0.099-12.676-0.084-19.017
	c-0.036-1.235-1.166-2.439-1.791-3.657c-0.929,1.166-2.565,2.28-2.656,3.509c-0.325,4.407-0.128,8.854-0.128,14.003
	c-0.209,0.211-1.196,1.207-2.184,2.203c3.66,3.428,1.021,8.262,2.707,12.131c-1.729,0.499-3.432,1.279-5.191,1.441
	c-4.08,0.377-8.195,0.382-12.279,0.727c-0.705,0.059-1.333,1.045-1.996,1.603c0.535,0.51,1.091,1.48,1.604,1.458
	c6.995-0.304,13.984-0.744,20.975-1.151c0.032-0.443,0.065-0.886,0.098-1.329C307.141,307.834,306.06,306.91,304.979,305.988z
	 M304.659,313.847c-2.323,1.506-5.152,4.108-8.479,5.222c-2.18,0.729-4.136,0.691-2.847,3.287c0.34,0.684,3.317,0.459,4.917,0.031
	c3.663-0.979,7.239-2.295,10.811-3.586c0.647-0.233,1.449-0.934,1.554-1.529c0.112-0.638-0.329-1.78-0.856-2.041
	C308.597,314.658,307.23,314.501,304.659,313.847z" />
	<path style="fill-rule:evenodd;clip-rule:evenodd;fill:none;" d="M364.762,528.52c-0.613,1.052-1.227,2.103-1.932,3.311
	c-0.44-0.369-0.985-0.593-1.092-0.947c-3.974-13.322-8.026-26.623-11.789-40.005c-1.521-5.414-2.333-11.024-3.596-16.517
	c-0.701-3.049-1.968-5.993-2.409-9.066c-0.318-2.214,0.443-4.562,0.458-6.851c0.01-1.374-0.245-2.863-0.814-4.102
	c-1.076-2.342-3.274-4.435-3.582-6.815c-1.251-9.673-2.075-19.406-2.817-29.136c-0.319-4.177-0.054-8.397-0.054-12.903
	c1.866-0.852,4.365-1.991,6.229-2.842c1.466,1.55,2.571,3.748,4.215,4.278c7.062,2.277,10.888,6.69,11.948,14.15
	c0.897,6.311,3.836,12.47,3.935,18.726c0.185,11.662-1.013,23.348-1.737,35.017c-0.045,0.712-1.062,1.324-1.484,2.063
	c-0.444,0.779-1.168,1.766-0.996,2.475c1.618,6.688,3.844,13.258,5.005,20.015c1.009,5.866,0.316,12.036,1.426,17.872
	c0.756,3.979-1.71,8.426,2.653,12.26c1.918,1.686,0.935,6.604,1.401,10.035c0.277,2.042,0.812,4.049,1.232,6.072
	c0.744-0.118,1.489-0.236,2.233-0.354c-0.346-4.118-0.714-8.233-1.034-12.354c-1.008-12.956-1.965-25.915-3.048-38.864
	c-0.099-1.18-0.963-2.294-1.725-3.204c-0.48-1.849-0.874-3.727-1.467-5.538c-0.603-1.836-1.37-2.84,0.715-5.036
	c1.654-1.743,0.623-6.31,0.314-9.577c-0.496-5.241-1.913-10.448-1.89-15.665c0.014-2.88,2.168-5.751,3.958-10.079
	c0.402,3.042,0.576,4.824,0.882,6.584c3.276,18.913,6.086,37.925,10.004,56.705c3.819,18.311,8.428,36.479,13.353,54.529
	c3.607,13.223,7.438,26.507,12.71,39.12c6.156,14.731,16.952,26.017,30.723,34.418c9.895,6.036,19.5,12.545,29.951,19.307
	c-1.393,0.755-2.555,1.758-3.873,2.041c-8.034,1.729-15.699-0.265-22.567-4.002c-12.516-6.809-22.863-16.57-30.901-28.155
	c-9.806-14.133-18.844-28.855-27.33-43.823c-4.789-8.447-7.78-17.911-11.624-26.898c-1.85-4.323-4.073-8.511-5.574-12.947
	c-0.645-1.906-0.023-4.309,0.283-6.448c0.306-2.137,0.937-4.228,1.425-6.338C365.906,528.859,365.334,528.689,364.762,528.52z" />
	<path style="fill-rule:evenodd;clip-rule:evenodd;fill:none;" d="M340.011,214.013c-0.913,6.247-1.393,12.969-6.973,16.926
	c-3.117,2.211-7.778,4.443-11.118,3.731c-10.126-2.159-19.933-0.597-29.723,0.896c-7.83,1.193-13.992-0.795-18.284-7.439
	c-2.992-4.633-5.213-8.487-0.578-14.151c4.604-5.624,3.257-12.077-1.3-15.999c0.838-2.633,1.617-5.336,2.556-7.981
	c2.011-5.673,5.299-8.149,11.004-6.562c2.786,0.775,4.786,4.273,7.232,6.436c0.876,0.774,2.02,1.246,3.041,1.855
	c0.485-1.136,1.46-2.316,1.358-3.396c-0.257-2.741-0.996-5.438-1.675-8.809c1.674,1.722,2.935,3.355,4.521,4.558
	c1.69,1.28,3.955,3.266,5.484,2.902c1.686-0.4,2.924-3.052,4.143-4.866c0.479-0.711,0.374-1.813-0.329-3.448
	c-0.946,0.836-1.974,1.6-2.818,2.528c-0.843,0.926-1.502,2.019-2.164,2.93c-3.768-3.644-7.262-7.022-9.958-9.63
	c-3.954,1.993-6.785,3.42-9.885,4.981c-2.325-9.896,9.994-20.918,23.081-21.001c-1.301,3.355-2.463,6.267-3.555,9.204
	c-0.546,1.469-0.965,2.984-1.44,4.479c1.38,0.276,2.75,0.617,4.142,0.812c1.476,0.206,2.97,0.273,4.293,0.388
	c3.396,5.11-2.621,12.219,2.718,16.184c2.984-2.821,5.038-5.947,7.902-7.158c3.249-1.373,7.782-2.968,10.458,1.208
	c3.039,4.741,7.333,9.338,4.14,15.922c-2.58,5.318-1.002,10.878,3.708,14.475L340.011,214.013z" />
	<path style="fill-rule:evenodd;clip-rule:evenodd;fill:none;" d="M359.448,541.991c-2.658,6.309-5.286,12.631-7.983,18.924
	c-4.252,9.922-13.814,11.581-22.572,13.236c-19.257,3.639-38.422,2.173-57.152-3.794c-6.079-1.937-10.277-5.687-11.975-12.177
	c-1.416-5.415-3.436-10.671-5.434-16.744c34.957,9.702,69.325,10.008,103.604-0.471C358.44,541.308,358.944,541.649,359.448,541.991
	z" />
	<path style="fill-rule:evenodd;clip-rule:evenodd;fill:none;" d="M468.94,511.611c-0.786,0.097-1.916-0.109-2.308,0.336
	c-4.172,4.729-7.016,1.523-9.558-1.693c-5.641-7.137-12.19-13.87-16.222-21.854c-2.686-5.319-2.156-12.517-2.07-18.859
	c0.037-2.655-1.525-7.948,3.445-7.994c5.785-0.054,12.789-3.425,16.887,4.302c2.901,5.473,5.11,12.207,9.682,15.661
	c5.099,3.854,7.854,8.869,10.686,13.716c3.348,5.728,4.923,12.512,7.106,18.893c2.454,7.169,4.774,14.385,7.048,21.613
	c0.5,1.59,1.344,4.185,0.66,4.803c-1.425,1.288-3.726,1.909-5.742,2.135c-1.337,0.149-2.948-0.627-4.189-1.391
	c-7.959-4.895-15.691-9.919-18.641-19.73c-0.844-2.81-1.3-4.585,1.582-6.182c1.005-0.557,1.607-1.839,2.395-2.789
	C469.447,512.255,469.194,511.934,468.94,511.611z" />
	<path style="fill-rule:evenodd;clip-rule:evenodd;fill:none;" d="M153.285,512.749c-2.581-1.794-4.154-2.887-6.236-4.334
	c-0.173,1.505-0.467,2.427-0.341,3.287c0.322,2.19,1.842,4.849,1.067,6.432c-1.983,4.051-4.395,8.225-7.658,11.243
	c-5.408,5.001-11.619,9.133-17.652,13.755c-4.124-4.437-0.584-8.4,0.508-12.146c2.391-8.194,5.259-16.258,8.158-24.292
	c1.94-5.374,3.823-10.849,6.524-15.851c4.721-8.745,9.962-17.217,15.204-25.668c1.049-1.691,2.872-3.456,4.694-4.003
	c4.277-1.284,8.748-1.985,13.181-2.663c3.182-0.485,5.26,0.805,4.937,4.414c-0.65,7.274-0.761,14.673-2.295,21.761
	c-0.78,3.606-4.048,6.734-6.395,9.929C162.583,500.6,158.036,506.477,153.285,512.749z" />
	<path style="fill-rule:evenodd;clip-rule:evenodd;fill:none;" d="M244.986,257.986c-0.278-5.271-0.834-10.55-0.706-15.811
	c0.054-2.221,1.547-4.407,2.703-7.44c-5.137-4.651-2.11-12.402-3.483-19.19c-0.216-1.068,1.507-2.529,2.333-3.809
	c1.005,1.248,2.637,2.376,2.905,3.768c1.146,5.924,1.889,11.926,2.883,18.606c0.721-1.009,1.495-1.589,1.467-2.129
	c-0.426-8.238,1.316-15.944,3.784-23.854c1.725-5.528,0.332-12.03,0.332-18.814c4.378-1.117,9.086-2.32,13.793-3.522
	c0.475,0.636,0.949,1.271,1.424,1.907c-2.166,4.238-4.485,8.408-6.437,12.744c-1.061,2.356-2.395,5.127-2.051,7.484
	c1.263,8.672,2.556,17.578,8.089,24.739c2.095,2.712,5.806,4.188,8.811,6.18c1.349,0.894,2.772,1.67,4.19,2.517
	c-10.862,6.429-17.447,15.565-23.418,26.782c-3.748-3.228-7.581-5.817-10.336-9.268c-1.02-1.276,0.592-4.566,0.831-6.955
	c0.527-5.263,0.945-10.537,1.407-15.808c-0.734-0.051-1.468-0.103-2.202-0.154c-1.113,9.493-2.227,18.986-3.312,28.235
	c-0.79-1.634-1.888-3.9-2.984-6.168L244.986,257.986z" />
	<path style="fill-rule:evenodd;clip-rule:evenodd;fill:none;" d="M311.289,352.209c1.4,1.532,2.497,2.732,3.594,3.933
	c0.496-1.876,0.991-3.752,1.516-5.735c3.705-0.902,7.724-2.081,11.821-2.821c3.779-0.683,4.425,1.806,4.306,4.906
	c-0.267,6.885-1.714,13.395-5.253,19.415c-1.046,1.779-1.451,3.934-1.932,5.299c-9.978,0-20.168-0.319-30.312,0.232
	c-2.424,0.132-4.689,3.165-7.555,5.246c2.124-6.988-0.411-12.625-3.902-18.307c-1.819-2.962-2.449-6.775-3.062-10.301
	c-0.269-1.542,0.778-4.739,1.35-4.768c3.337-0.167,6.737,0.219,10.062,0.758c1.714,0.278,3.313,1.262,5.334,1.101
	c1.265,1.832,2.528,3.664,3.793,5.496c0.457-0.197,0.913-0.394,1.37-0.591c0.079-1.477,0.158-2.953,0.235-4.391
	C305.644,351.864,308.561,352.042,311.289,352.209z" />
	<path style="fill-rule:evenodd;clip-rule:evenodd;fill:none;" d="M555.334,606.824c-4.205-2.095-8.658-3.811-12.57-6.355
	c-12.599-8.197-23.252-18.488-32.275-30.555c-2.321-3.104-5.744-5.383-8.646-8.058c-0.685-0.631-1.468-1.236-1.927-2.017
	c-1.19-2.027-1.943-4.372-3.388-6.177c-2.371-2.964-3.207-5.882-0.746-9.004c2.555-3.242,5.016-1.659,7.737,0.201
	c5.354,3.659,11.426,6.416,16.288,10.604c5.844,5.034,11.433,10.678,15.883,16.943c7.467,10.512,13.946,21.726,20.842,32.644
	C556.132,605.643,555.732,606.233,555.334,606.824z" />
	<path style="fill-rule:evenodd;clip-rule:evenodd;fill:none;" d="M116.15,539.195c3.707,7.865,1.759,14.179-4.073,19.776
	c-12.832,12.316-25.399,24.917-38.466,36.979c-4.988,4.604-11.045,8.052-17.686,12.791
	C60.054,591.775,97.275,549.439,116.15,539.195z" />
	<path style="fill-rule:evenodd;clip-rule:evenodd;fill:none;" d="M194.721,449.743c1.988,2.616,7.074,3.851,3.797,8.848
	c6.017,8.392,1.774,18.271,3.855,27.268c0.53,2.294,0.237,6.277-1.172,7.199c-2.668,1.746-5.656,0.403-8.256-2.245
	c-1.697-1.73-5.021-1.744-7.402-2.949c-5.037-2.549-7.812-8.53-6.94-14.068c0.335-2.124,0.908-4.351,0.593-6.411
	c-1.057-6.894,3.261-10.201,8.226-13.214C189.676,452.802,191.932,451.435,194.721,449.743z M191.338,487.188
	c0.168,0.327,0.336,0.654,0.505,0.98c0.848-0.7,2.025-1.234,2.479-2.134c1.222-2.421,2.244-4.961,3.117-7.53
	c0.382-1.125,0.206-2.438,0.283-3.667c-1.205,0.855-3.026,1.459-3.496,2.613C192.955,480.571,192.261,483.926,191.338,487.188z
	 M186.788,469.456c0.4,0.357,0.801,0.716,1.201,1.073c1.697-1.749,3.742-3.29,4.955-5.327c0.681-1.142-0.013-3.104-0.088-4.696
	c-1.368,0.836-3.258,1.362-3.983,2.581C187.758,464.96,187.442,467.309,186.788,469.456z M199.639,462.724
	c-3.414,5.134-3.377,6.857,0,9.063C199.639,468.526,199.639,465.625,199.639,462.724z" />
	<path style="fill-rule:evenodd;clip-rule:evenodd;fill:none;" d="M367.525,350.677c3.229-0.267,5.76-0.476,8.765-0.724
	c5.517,14.58,11.135,29.429,16.753,44.277c-0.407,0.243-0.813,0.486-1.221,0.729c-1.011-0.8-2.021-1.6-3.381-2.675
	c-0.321,0.854-0.813,1.549-0.8,2.234c0.05,2.514-0.243,5.304-3.353,4.812c-2.394-0.378-5.741-1.882-6.548-3.783
	c-2.305-5.435-3.591-11.31-5.166-17.042c-1.905-6.933-3.876-13.856-5.434-20.869C366.644,355.395,367.371,352.881,367.525,350.677z" />
	<path style="fill-rule:evenodd;clip-rule:evenodd;fill:none;" d="M216.016,439.044c-0.342-0.688-0.684-1.375-1.025-2.063
	c0.746-2.216,1.3-4.524,2.299-6.62c0.856-1.795,2.224-3.348,3.047-4.546c-0.499-3.036-0.961-5.849-1.471-8.953
	c-1.846,0.103-3.918,0.219-6.749,0.377c1.938-6.099,3.706-11.662,5.513-17.347c5.411,1.61,10.27,3.057,16.32,4.856
	c-0.719,5.566-1.376,11.889-2.382,18.155c-1.55,9.646-3.074,19.311-5.2,28.836c-0.576,2.58-3.277,4.686-5.005,7.01
	c0.11-3.235,0.702-6.549,0.19-9.683c-0.456-2.793-2.041-5.432-3.328-8.04C217.819,440.203,216.771,439.696,216.016,439.044z
	 M229.085,424.975c0.422-2.918,0.979-5.674,1.146-8.452c0.067-1.145-0.708-2.339-1.1-3.512c-1.284,0.513-3.376,0.72-3.705,1.592
	c-1.188,3.154-1.784,6.531-2.74,10.372C225.633,424.975,227.213,424.975,229.085,424.975z" />
	<path style="fill-rule:evenodd;clip-rule:evenodd;fill:none;" d="M423.059,488.111c-2.275-5.173-4.865-10.237-6.711-15.559
	c-1.166-3.359-2.747-7.856-1.439-10.511c2.326-4.72,2.228,2.201,5.603,1.42c-0.646-2.084-0.646-5.1-2.06-6.082
	c-3.967-2.758-1.354-5.432-1.233-9.243c5.892,3.886,10.991,7.174,15.986,10.615c0.855,0.589,1.79,1.836,1.788,2.776
	c-0.023,8.251-0.105,16.509-0.584,24.741c-0.066,1.15-2.229,2.474-3.685,3.171c-1.754,0.84-3.787,1.097-5.699,1.605
	C424.369,490.067,423.714,489.09,423.059,488.111z" />
	<path style="fill-rule:evenodd;clip-rule:evenodd;fill:none;" d="M247.009,358.011c-3.528,12.271-6.949,24.574-10.638,36.798
	c-1.478,4.896-4.664,5.734-10.525,3.343c-3.906-1.593-5.75-5.688-4.229-9.399c1.134-2.769,3.385-3.816,6.808-3
	c1.361-2.887,4.244-5.988-2.87-7.184c2.451-7.416,4.795-14.505,7.139-21.595c0.448-0.111,0.896-0.223,1.345-0.335
	c1.264,2.216,2.526,4.432,4.443,7.795c1.058-2.063,2.2-3.372,2.355-4.788c0.314-2.867,0.094-5.793,0.094-8.694
	c0.604-0.019,1.208-0.037,1.812-0.056c0.155,3.377,0.31,6.755,0.538,11.726c1.849-2.302,2.781-3.463,3.714-4.624L247.009,358.011z" />
	<path style="fill-rule:evenodd;clip-rule:evenodd;fill:none;" d="M339.795,577.393c-3.971,6.576-10.316,10.87-17.438,11.774
	c-10.442,1.325-21.23,2.428-31.675-0.6c-5.852-1.696-11.96-3.325-15.251-9.352c-0.234-0.43-0.483-0.872-0.596-1.34
	c-0.068-0.281,0.115-0.623,0.064-0.396c10.899,0.947,21.709,2.627,32.518,2.618C318.138,580.088,328.856,578.377,339.795,577.393z" />
	<path style="fill-rule:evenodd;clip-rule:evenodd;fill:none;" d="M285.362,453.696c-1.954,0-3.287-0.116-4.594,0.021
	c-3.974,0.419-4.903-1.745-4.608-5.144c1.056-12.16,1.992-24.331,3.209-36.474c0.184-1.825,1.217-3.96,2.554-5.198
	c3.836-3.551,8.03-6.715,12.392-10.282c2.507,4.559,1.921,8.422-0.817,11.591c-4.193,4.854-5.496,9.586-1.626,15.237
	c1.674,2.444,0.974,4.411-1.771,6.136c-10.112,6.352-11.25,10.867-5.847,21.252C284.628,451.557,284.85,452.358,285.362,453.696z" />
	<path style="fill-rule:evenodd;clip-rule:evenodd;fill:none;" d="M324.962,441.847c-5.156-0.35-9.946-1.966-13.701-0.644
	c-6.589,2.321-13.901-1.115-20.03,3.34c-1.206,0.877-3.623,1.157-4.887,0.524c-0.895-0.449-1.199-2.938-1.056-4.448
	c0.57-5.964,5.248-8.968,10.019-9.706c7.218-1.117,14.617-2.861,22.106-0.115C322.204,432.555,324.111,435.678,324.962,441.847z" />
	<path style="fill-rule:evenodd;clip-rule:evenodd;fill:none;" d="M485.132,494.574c-17.918-22.033-32.282-46.234-42.409-73.241
	c1.322,1.559,2.889,2.971,3.928,4.7c9.907,16.486,19.68,33.055,29.614,49.524c1.672,2.772,4.095,5.082,5.887,7.794
	c2.058,3.113,3.8,6.436,5.679,9.667C486.931,493.537,486.031,494.056,485.132,494.574z" />
	<path style="fill-rule:evenodd;clip-rule:evenodd;fill:none;" d="M336.88,367.994c4.867,0.879,18.397,28.965,18.708,35.156
	c-5.682-2.508-12.041-5.314-18.708-8.258C336.88,386.518,336.88,377.489,336.88,367.994z" />
	<path style="fill-rule:evenodd;clip-rule:evenodd;fill:none;" d="M328.357,390.089c-4.207,0.958-7.223,2.045-10.302,2.267
	c-8.144,0.588-16.316,1.07-24.472,0.978c-2.106-0.023-4.188-2.32-6.243-3.551C293.653,378.665,315.998,378.305,328.357,390.089z" />
	<path style="fill-rule:evenodd;clip-rule:evenodd;fill:none;" d="M254.945,365.824c1.285-1.441,2.571-2.883,3.393-3.805
	c-0.604-2.54-1.993-4.927-1.457-6.745c2.074-7.037-0.839-16.469,8.577-19.95c3.071,7.65,9.194,15,2.841,23.275
	c0.973,1.891,1.844,3.586,2.715,5.28C266.368,359.322,266.108,359.359,254.945,365.824z" />
	<path style="fill-rule:evenodd;clip-rule:evenodd;fill:none;" d="M153.01,450.01c0.187,1.605,0.992,3.484,0.43,4.76
	c-1.193,2.706-3.183,5.05-4.699,7.629c-4.277,7.272-8.289,14.711-12.788,21.842c-2.588,4.103-5.918,7.736-8.914,11.581
	c-0.824-0.48-1.647-0.96-2.472-1.44c1.688-4.027,3.389-8.049,5.05-12.086c0.325-0.791,0.496-1.646,0.74-2.471
	c0.345-1.168,0.331-2.969,1.094-3.402c6.331-3.594,7.952-10.716,12.146-15.885c2.179-2.685,3.689-5.912,5.502-8.895
	c-0.316-0.285-0.634-0.57-0.951-0.855c1.612-0.266,3.226-0.531,4.838-0.797L153.01,450.01z" />
	<path style="fill-rule:evenodd;clip-rule:evenodd;fill:none;" d="M361.385,355.421c4.326,15.357,8.653,30.716,13.033,46.263
	c-9.184-0.211-8.882-0.248-10.019-9.534c-1.22-9.958-3.146-19.827-4.615-29.756c-0.333-2.251-0.049-4.592-0.049-6.892
	C360.285,355.475,360.835,355.447,361.385,355.421z" />
	<path style="fill-rule:evenodd;clip-rule:evenodd;fill:none;" d="M240.986,423.985c-0.363-4.266,2.394-9.51-3.732-12.089
	c2.683-16.322,7.094-32.273,13.154-47.745c0.438,0.102,0.874,0.202,1.311,0.304c-1.508,7.979-3.133,15.939-4.493,23.944
	c-1.661,9.773-3.066,19.591-4.662,29.376c-0.343,2.104-1.029,4.152-1.558,6.227L240.986,423.985z" />
	<path style="fill-rule:evenodd;clip-rule:evenodd;fill:none;" d="M353.112,384.851c-2.228-4.09-4.985-7.991-6.523-12.325
	c-1.398-3.94-3.366-8.568,0.86-11.511c1.488,0.085,2.621,0.119,3.748,0.223c1.304,0.12,3.68,0.113,3.744,0.482
	c1.078,6.199,2.038,12.435,2.58,18.699c0.109,1.27-1.606,2.696-2.48,4.051C354.398,384.597,353.755,384.724,353.112,384.851z" />
	<path style="fill-rule:evenodd;clip-rule:evenodd;fill:none;" d="M315.186,409.112c-6.533,0.772-12.859,1.52-18.516,2.188
	c0.542-2.795,0.807-6.156,1.939-9.193c0.595-1.592,2.521-3.153,4.194-3.749c1.757-0.626,3.934,0.004,5.922-0.066
	c2.619-0.093,3.756,0.808,4.048,3.675C313.036,404.547,314.437,407.013,315.186,409.112z" />
	<path style="fill-rule:evenodd;clip-rule:evenodd;fill:none;" d="M365.041,253.425c-5.324-14.207-5.704-28.819-4.454-43.565
	c0.612-0.201,1.224-0.401,1.836-0.603c0.717,1.692,1.99,3.364,2.057,5.082c0.336,8.729,0.229,17.477,0.548,26.207
	c0.157,4.288,0.902,8.554,1.382,12.829C365.953,253.392,365.497,253.408,365.041,253.425z" />
	<path style="fill-rule:evenodd;clip-rule:evenodd;fill:none;" d="M345.036,336.964c5.256-1.079,7.09,1.406,6.995,6.375
	c-0.049,2.626,0.59,5.258,0.763,7.897c0.219,3.332-1.516,5.178-4.778,5.437c-3.348,0.266-4.899-1.354-4.696-4.768
	c0.275-4.621,0.428-9.25,0.634-13.876C344.314,337.674,344.675,337.318,345.036,336.964z" />
	<path style="fill-rule:evenodd;clip-rule:evenodd;fill:none;" d="M259.906,329.243c2.312-10.023,4.624-20.046,6.936-30.069
	c0.566,0.057,1.134,0.113,1.7,0.17c0.092,1.693,0.216,3.386,0.269,5.08c0.092,2.978,0.006,5.968,0.246,8.933
	c0.207,2.565,1.903,5.726,0.922,7.521c-1.952,3.571-5.292,6.384-8.059,9.51C261.249,330.006,260.578,329.624,259.906,329.243z" />
	<path style="fill-rule:evenodd;clip-rule:evenodd;fill:none;" d="M268.54,369.98c-0.641,6.551-4.249,11.672-9.94,16.585
	c-1.265-5.544-2.422-10.61-3.846-16.848c1.108-0.196,3.47-0.919,5.841-0.951C262.86,368.736,265.136,369.424,268.54,369.98z" />
	<path style="fill-rule:evenodd;clip-rule:evenodd;fill:none;" d="M253.097,376.788c0.749,4.845,2.646,9.855,1.979,14.497
	c-1.018,7.074-3.789,13.9-5.892,20.808c-0.147,0.483-0.921,0.775-1.403,1.157c-0.502-0.133-1.005-0.266-1.507-0.398
	c1.869-12.104,3.739-24.208,5.608-36.312C252.287,376.622,252.691,376.705,253.097,376.788z" />
	<path style="fill-rule:evenodd;clip-rule:evenodd;fill:none;" d="M423.059,488.111c0.655,0.979,1.311,1.956,1.966,2.935
	c-3.27,3.56-8.782,4.461-11.141,1.956c-3.876-4.117-1.661-10.044,0.056-15.707C417.235,481.204,420.146,484.657,423.059,488.111z" />
	<path style="fill-rule:evenodd;clip-rule:evenodd;fill:none;" d="M495.349,520.391c-0.577,1.104-1.155,2.209-1.713,3.274
	c-0.481-0.116-0.931-0.093-1.03-0.268c-3.111-5.479-2.78-10.907,1.231-17.859c0.855,3.333,1.395,5.436,2.049,7.985
	c7.448,0.95,0.656,7.334,2.867,11.229c1.265-1.702,2.262-3.044,3.258-4.386c0.18,0.096,0.358,0.191,0.538,0.287
	c-1.087,2.828-2.174,5.657-3.553,9.248c-1.709-5.343-2.976-2.447-4.923,0.824c1.296-4.341,2.124-7.119,2.953-9.896
	C496.467,520.684,495.908,520.537,495.349,520.391z" />
	<path style="fill-rule:evenodd;clip-rule:evenodd;" d="M216.016,439.044c0.755,0.652,1.804,1.159,2.209,1.982
	c1.287,2.608,2.872,5.247,3.328,8.04c0.512,3.134-0.08,6.447-0.19,9.683c-0.76,0.811-1.521,1.621-2.284,2.433
	c-6.735-0.094-1.07-3.084-1.103-4.529c-2.985-2.462-3.458-4.962-3.466-8.961C214.504,444.467,215.465,441.9,216.016,439.044z" />
	<path style="fill-rule:evenodd;clip-rule:evenodd;fill:none;" d="M246.43,269.962c4.365-0.452,6.588-4.213,10.254-0.968
	c3.099,2.741,3.212,5.953,2.918,9.431c-0.247,2.917-1.934,3.467-3.937,1.51C252.753,277.09,250.11,273.97,246.43,269.962z" />
	<path style="fill-rule:evenodd;clip-rule:evenodd;fill:none;" d="M294.252,450.078c1.592-0.178,3.185-0.356,4.776-0.533
	c3.242-0.359,6.503-1.087,9.719-0.924c1.66,0.084,3.24,1.752,4.855,2.703c-1.233,1.182-2.301,3.078-3.731,3.412
	c-4.381,1.021-9.127,2.644-12.256-2.794c-0.405-0.705-2.149-0.641-3.274-0.933C294.312,450.699,294.281,450.389,294.252,450.078z" />
	<path style="fill-rule:evenodd;clip-rule:evenodd;fill:none;" d="M310.891,161.027c7.077,1.156,11.324,3.958,13.604,9.747
	c-4.775-0.466-9.047-0.78-13.271-1.412c-0.594-0.088-1.378-1.74-1.34-2.638C309.964,164.812,310.526,162.921,310.891,161.027z" />
	<path style="fill-rule:evenodd;clip-rule:evenodd;fill:none;" d="M280.88,401.978c0-10.282,0-20.563,0-30.815
	c3.694,1.789,5.289,5.713,3.808,9.275c-2.396,5.761-4.412,11.526-1.552,17.82c0.457,1.006-0.233,2.533-0.394,3.82
	C282.121,402.044,281.501,402.011,280.88,401.978z" />
	<path style="fill-rule:evenodd;clip-rule:evenodd;fill:none;" d="M503.746,524.313c1.754,1.801,3.187,2.847,4.029,4.247
	c0.987,1.641,2.096,3.625,1.998,5.396c-0.121,2.207-1.42,4.349-2.691,7.839c-0.145-2.383-0.211-3.482-0.302-4.997
	c-1.42,0.268-2.752,0.519-5.676,1.07C502.113,532.693,502.963,528.332,503.746,524.313z" />
	<path style="fill-rule:evenodd;clip-rule:evenodd;fill:none;" d="M257.734,326.063c-1.405,10.702-2.81,21.405-4.214,32.107
	c-0.429-0.056-0.858-0.11-1.287-0.166C251.465,347.021,255.445,336.652,257.734,326.063z" />
	<path style="fill-rule:evenodd;clip-rule:evenodd;fill:none;" d="M308.556,422.676c-2.315,0.472-4.39,0.895-7.052,1.437
	c0.984-2.984,1.909-4.596,1.987-6.246c0.234-4.964,0.105-4.97,5.961-3.845C309.158,416.858,308.859,419.743,308.556,422.676z" />
	<path style="fill-rule:evenodd;clip-rule:evenodd;fill:none;" d="M349.75,327.087c-4.15-3.257-8.108-6.28-4.965-12.124
	c0.992-1.844,0.392-4.544,1.337-6.973C347.332,314.355,348.541,320.721,349.75,327.087z" />
	<path style="fill-rule:evenodd;clip-rule:evenodd;fill:none;" d="M152.985,449.99c0.525-1.999,0.526-4.403,1.689-5.91
	c2.218-2.874,3.783-6.821,8.393-7.103c-3.146,4.561-3.084,11.494-10.058,13.032L152.985,449.99z" />
	<path style="fill-rule:evenodd;clip-rule:evenodd;fill:none;" d="M164.295,430.823c4.504-7.51,9.008-15.02,13.511-22.528
	c0.349,0.192,0.697,0.385,1.045,0.577c-4.155,7.688-8.311,15.374-12.466,23.062C165.688,431.563,164.991,431.193,164.295,430.823z" />
	<path style="fill-rule:evenodd;clip-rule:evenodd;fill:none;" d="M104.693,542.143c-2.998-9.745-2.998-9.745,6.297-21.725
	c-1.144,2.846-1.561,7.291-3.58,8.209c-4.381,1.989-2.295,5.057-2.664,7.682C104.479,538.218,104.693,540.195,104.693,542.143z" />
	<path style="fill-rule:evenodd;clip-rule:evenodd;fill:none;" d="M345.036,336.964c-0.361,0.354-0.722,0.71-1.083,1.065
	c-2.732-3.539-5.169-7.179-4.313-11.99C342.379,329.276,348.382,330.895,345.036,336.964z" />
	<path style="fill-rule:evenodd;clip-rule:evenodd;fill:none;" d="M359.847,386.561c0.837,5.094,1.552,9.443,2.339,14.238
	C357.225,399.213,355.965,391.373,359.847,386.561z" />
	<path style="fill-rule:evenodd;clip-rule:evenodd;fill:none;" d="M353.337,272.98c-0.996-4.25-0.559-5.253,4.024-9.779
	C361.676,267.534,360.746,269.979,353.337,272.98z" />
	<path style="fill-rule:evenodd;clip-rule:evenodd;" d="M255.187,415.818c1.118,1.014,2.236,2.028,3.616,3.279
	c0.705-2.637,1.369-5.117,2.033-7.599c2.796,5.408,0.995,10.58-2.835,11.617c-3.773,1.021-3.168-2.266-3.962-4.159
	C254.422,417.91,254.804,416.864,255.187,415.818z" />
	<path style="fill-rule:evenodd;clip-rule:evenodd;" d="M390.016,472.002c0.372,0.536,1.135,1.145,1.05,1.594
	c-0.385,2.052-1.007,4.059-1.544,6.081c-1.378-1.391-3.108-2.579-4.05-4.221c-1.413-2.462-0.757-4.462,2.456-4.892
	C388.623,471.043,389.319,471.523,390.016,472.002z" />
	<path style="fill-rule:evenodd;clip-rule:evenodd;fill:none;" d="M356.019,335.979c1.513,4.68,3.025,9.359,4.538,14.039
	c-0.537,0.136-1.075,0.271-1.612,0.407c-4.209-3.952-3.771-9.136-2.954-14.42L356.019,335.979z" />
	<path style="fill-rule:evenodd;clip-rule:evenodd;fill:none;" d="M438.749,494.56c-1.291,1.308-2.582,2.615-3.873,3.923
	c-1.294-1.321-2.589-2.642-3.883-3.963c2.147-0.686,4.294-1.372,6.44-2.058C437.872,493.161,438.311,493.86,438.749,494.56z" />
	<path style="fill-rule:evenodd;clip-rule:evenodd;fill:none;" d="M275.923,329.059c-0.946,2.227-1.893,4.454-3.076,7.24
	c-4.104-1.763-2.05-4.839-1.282-7.102c0.306-0.901,2.39-1.2,3.664-1.772C275.46,327.969,275.691,328.514,275.923,329.059z" />
	<path style="fill-rule:evenodd;clip-rule:evenodd;" d="M212.811,579.183c-1.867-0.944-3.733-1.889-5.736-2.901
	c1.571-2.578,3.062-5.024,5.123-8.408c0.802,3.169,1.303,5.147,1.803,7.125C213.604,576.394,213.207,577.788,212.811,579.183z" />
	<path style="fill-rule:evenodd;clip-rule:evenodd;fill:none;" d="M168.079,452.194c0.306,0.611,0.612,1.224,0.918,1.835
	c-2.876,0.878-5.752,1.755-9.405,2.868C161.294,451.328,164.3,450.91,168.079,452.194z" />
	<path style="fill-rule:evenodd;clip-rule:evenodd;fill:none;" d="M119.722,519.664c-0.27-4.482-0.538-8.966-0.808-13.448
	c0.428-0.022,0.855-0.044,1.284-0.065c0,4.479,0,8.958,0,13.437C120.039,519.613,119.88,519.639,119.722,519.664z" />
	<path style="fill-rule:evenodd;clip-rule:evenodd;fill:none;" d="M264.779,183.98c-3.805,0-7.609,0-11.414,0
	c0.016-0.486,0.031-0.974,0.048-1.46c3.729,0.253,7.458,0.507,11.187,0.761C264.659,183.514,264.72,183.747,264.779,183.98z" />
	<path style="fill-rule:evenodd;clip-rule:evenodd;fill:none;" d="M331.271,400.164c-1.083-1.661-2.165-3.322-3.248-4.984
	c0.787-0.406,2.148-1.294,2.272-1.146c1.195,1.427,2.183,3.027,3.229,4.579C332.773,399.13,332.022,399.647,331.271,400.164z" />
	<path style="fill-rule:evenodd;clip-rule:evenodd;fill:none;" d="M390.404,408.791c-0.649-1.903-1.223-3.583-1.796-5.262
	c2.297,0.188,4.593,0.376,7.917,0.648C394.177,405.947,392.408,407.28,390.404,408.791z" />
	<path style="fill-rule:evenodd;clip-rule:evenodd;fill:none;" d="M355.99,336.005c-3.479-3.133-3.607-7.087-2.124-11.424
	c0.718,3.799,1.435,7.599,2.152,11.397L355.99,336.005z" />
	<path style="fill-rule:evenodd;clip-rule:evenodd;" d="M422.1,419.885c1.95,1.757,4.18,3.302,5.741,5.354
	c0.868,1.143,0.624,3.132,0.881,4.739c-1.59-0.133-3.87,0.344-4.631-0.519c-1.821-2.065-2.928-4.761-4.321-7.203
	C420.547,421.465,421.323,420.675,422.1,419.885z" />
	<path style="fill-rule:evenodd;clip-rule:evenodd;" d="M422.1,419.885c-0.776,0.79-1.553,1.58-2.33,2.372
	c-4.289-1.248-4.99-4.993-6.49-8.422C418.774,412.474,421.479,414.492,422.1,419.885z" />
	<path style="fill-rule:evenodd;clip-rule:evenodd;" d="M405.693,398.254c-1.691-1.478-3.528-2.828-4.987-4.507
	c-0.464-0.534-0.282-2.356,0.265-2.837c0.544-0.478,2.507-0.389,2.825,0.108c1.271,1.981,2.145,4.219,3.165,6.362
	C406.538,397.672,406.115,397.963,405.693,398.254z" />
	<path style="fill-rule:evenodd;clip-rule:evenodd;" d="M204.579,376.265c2.327-0.85,4.233-1.802,6.246-2.171
	c0.967-0.177,3.09,0.818,3.064,1.164c-0.261,3.556,2.019,7.802-2.462,10.366c-0.54,0.31-1.259,0.935-1.277,1.437
	c-0.363,10.042-8.596,16.167-12.027,24.585c-1.512,3.708-5.232,6.492-4.794,11.124c0.088,0.926-1.261,2.598-2.266,2.914
	c-4.485,1.412-6.065,4.141-5.213,9.697c-1.687-0.834-3.655-1.384-4.918-2.643c-0.499-0.498,0.162-3.374,0.996-3.803
	c7.067-3.635,7.237-11.779,11.548-17.205c3.564-4.485,7.283-9.076,8.366-15.016c0.247-1.358,0.26-2.759,0.438-4.133
	c0.414-3.173,0.854-6.342,1.302-9.51C203.93,380.611,204.302,378.154,204.579,376.265z" />
	<path style="fill-rule:evenodd;clip-rule:evenodd;" d="M167.777,446.538c2.297-2.579,3.815-4.7,5.745-6.336
	c1.945-1.649,4.254-2.903,6.527-4.094c0.294-0.153,2.019,1.433,1.911,1.659c-1.036,2.188-1.85,4.897-3.642,6.221
	C175.159,446.323,171.484,448.733,167.777,446.538z" />
	<path style="fill-rule:evenodd;clip-rule:evenodd;" d="M165.014,519.018c-0.691-1.088-1.382-2.176-1.796-2.828
	c1.084-1.919,2.019-3.575,3.44-6.097c0.744,0.507,2.144,1.462,3.543,2.417c-1.737,2.159-3.476,4.318-5.213,6.477L165.014,519.018z" />
	<path style="fill-rule:evenodd;clip-rule:evenodd;" d="M130.464,652.175c-1.386-4.155-2.771-8.311-4.156-12.466
	c0.736-0.238,1.473-0.478,2.209-0.717c1.39,4.152,2.78,8.305,4.17,12.458C131.945,651.691,131.205,651.934,130.464,652.175z" />
	<path style="fill-rule:evenodd;clip-rule:evenodd;" d="M222.361,513.865c2.445-1.369,4.891-2.738,7.335-4.107
	c-0.285-0.671-0.571-1.342-0.856-2.013c-0.315,2.087-0.029,4.619-1.141,6.115c-0.848,1.142-3.465,0.969-5.295,1.38
	C222.391,514.782,222.376,514.324,222.361,513.865z" />
	<path style="fill-rule:evenodd;clip-rule:evenodd;" d="M164.988,518.986c-1.213,2.829-2.425,5.658-3.928,9.162
	c-2.805-4.764-0.73-8.413,3.952-9.131C165.014,519.018,164.988,518.986,164.988,518.986z" />
	<path style="fill-rule:evenodd;clip-rule:evenodd;" d="M253.013,482.013c0.922-3.358,1.845-6.718,2.767-10.076
	c0.741,0.285,1.482,0.571,2.223,0.856c0.339,3.945-2.04,6.703-5.012,9.201C252.989,481.994,253.013,482.013,253.013,482.013z" />
	<path style="fill-rule:evenodd;clip-rule:evenodd;" d="M170.776,537.817c5.285,2.497-1.585,4.902,0.106,7.238
	C166.995,542.737,168.157,540.379,170.776,537.817z" />
	<path style="fill-rule:evenodd;clip-rule:evenodd;" d="M398.666,522.896c4.293,3.997,4.664,6.153,0.817,9.585
	c-6.085-10.85-8.413-22.692-10.657-34.923c1.99-0.9,3.883-1.757,6.429-2.908c0.804,3.856,1.495,7.168,2.26,10.835
	c-1.335,0.346-2.512,0.65-3.72,0.964C400.176,510.279,399.109,516.077,398.666,522.896z" />
	<path style="fill-rule:evenodd;clip-rule:evenodd;" d="M406.76,545.77c2.297,2.609,4.595,5.219,7.755,8.808
	c-8.966-0.597-10.665-2.303-9.35-7.685C405.696,546.519,406.228,546.145,406.76,545.77z" />
	<path style="fill-rule:evenodd;clip-rule:evenodd;" d="M393.098,489.372c-3.83,0.358-5.989-1.905-5.368-4.846
	c1.058-5.005,3.618-3.453,5.272-0.131C393.6,485.597,393.098,487.346,393.098,489.372z" />
	<path style="fill-rule:evenodd;clip-rule:evenodd;" d="M441.367,536.317c-1.069-2.964-1.932-5.356-2.795-7.749
	c0.253-0.4,0.506-0.802,0.76-1.203c1.445,0.865,4.17,1.862,4.097,2.572C443.217,532.01,446.377,535.634,441.367,536.317z" />
	<path style="fill-rule:evenodd;clip-rule:evenodd;" d="M401.892,542.946c-0.22-2.385-0.439-4.77-0.659-7.155
	c0.361-0.33,0.722-0.66,1.083-0.99c1.479,1.502,3.668,2.804,4.167,4.58c0.296,1.054-2.073,2.856-3.245,4.322
	C402.789,543.451,402.34,543.199,401.892,542.946z" />
	<path style="fill-rule:evenodd;clip-rule:evenodd;" d="M400.195,461.78c3.982,1.06,6.837,3.227,7.293,7.778
	c-3.266-1.706-7.602-2.224-7.716-7.365C399.916,462.062,400.058,461.923,400.195,461.78z" />
	<path style="fill-rule:evenodd;clip-rule:evenodd;" d="M447.119,547.277c-4.017-0.824-5.693-6.281-2.627-10.934
	C445.489,540.491,446.279,543.779,447.119,547.277z" />
	<path style="fill-rule:evenodd;clip-rule:evenodd;" d="M448.844,559.269c-1.274-3.182-2.549-6.364-3.823-9.546
	c0.781-0.319,1.562-0.64,2.344-0.959c1.325,3.181,2.65,6.361,3.976,9.541C450.508,558.626,449.676,558.947,448.844,559.269z" />
	<path style="fill-rule:evenodd;clip-rule:evenodd;" d="M465.118,555.463c-1.372-2.889-2.744-5.777-4.116-8.665
	c0.887-0.384,1.774-0.767,2.662-1.149c1.199,2.974,2.399,5.947,3.6,8.921C466.549,554.867,465.833,555.165,465.118,555.463z" />
	<path style="fill-rule:evenodd;clip-rule:evenodd;" d="M434.991,510.004c0.977,3.039,3.48,5.933,0.79,9.316
	c0.013-3.133-4.681-5.84-0.759-9.331L434.991,510.004z" />
	<path style="fill-rule:evenodd;clip-rule:evenodd;" d="M305.012,306.008c-1.687-3.869,0.953-8.703-2.707-12.131
	c0.987-0.996,1.975-1.992,2.184-2.203c0-5.149-0.197-9.596,0.128-14.003c0.091-1.229,1.728-2.343,2.656-3.509
	c0.625,1.218,1.755,2.422,1.791,3.657c0.183,6.341,0.084,12.689,0.084,19.017c0.538,0.248,2.681,0.827,2.658,1.3
	c-0.091,1.829-0.386,4.069-1.525,5.312c-1.229,1.34-3.49,1.733-5.301,2.541L305.012,306.008z" />
	<path style="fill-rule:evenodd;clip-rule:evenodd;" d="M304.659,313.847c2.571,0.654,3.938,0.812,5.099,1.384
	c0.527,0.261,0.969,1.403,0.856,2.041c-0.104,0.596-0.906,1.296-1.554,1.529c-3.571,1.291-7.147,2.607-10.811,3.586
	c-1.6,0.428-4.577,0.652-4.917-0.031c-1.289-2.596,0.667-2.559,2.847-3.287C299.507,317.955,302.336,315.353,304.659,313.847z" />
	<path style="fill-rule:evenodd;clip-rule:evenodd;" d="M304.979,305.988c1.08,0.922,2.161,1.846,3.241,2.768
	c-0.032,0.443-0.065,0.886-0.098,1.329c-6.99,0.407-13.979,0.848-20.975,1.151c-0.513,0.022-1.068-0.948-1.604-1.458
	c0.663-0.558,1.291-1.544,1.996-1.603c4.084-0.345,8.199-0.35,12.279-0.727c1.76-0.162,3.463-0.942,5.191-1.441L304.979,305.988z" />
	<path style="fill-rule:evenodd;clip-rule:evenodd;" d="M191.338,487.188c0.923-3.262,1.617-6.616,2.888-9.737
	c0.47-1.154,2.291-1.758,3.496-2.613c-0.077,1.229,0.099,2.542-0.283,3.667c-0.873,2.569-1.896,5.109-3.117,7.53
	c-0.453,0.899-1.631,1.434-2.479,2.134C191.674,487.842,191.506,487.515,191.338,487.188z" />
	<path style="fill-rule:evenodd;clip-rule:evenodd;" d="M186.788,469.456c0.654-2.147,0.97-4.496,2.085-6.369
	c0.726-1.219,2.615-1.745,3.983-2.581c0.075,1.592,0.769,3.555,0.088,4.696c-1.213,2.037-3.258,3.578-4.955,5.327
	C187.589,470.172,187.188,469.813,186.788,469.456z" />
	<path style="fill-rule:evenodd;clip-rule:evenodd;" d="M199.639,462.724c0,2.901,0,5.803,0,9.063
	C196.262,469.581,196.225,467.857,199.639,462.724z" />
	<path style="fill-rule:evenodd;clip-rule:evenodd;" d="M229.085,424.975c-1.872,0-3.452,0-6.399,0
	c0.956-3.841,1.552-7.218,2.74-10.372c0.329-0.872,2.421-1.079,3.705-1.592c0.392,1.173,1.167,2.367,1.1,3.512
	C230.064,419.301,229.507,422.057,229.085,424.975z" />
</svg>
